<?xml version="1.0" encoding="utf-8"?>
<!-- Generator: Adobe Illustrator 16.1.0, SVG Export Plug-In . SVG Version: 6.00 Build 0)  -->
<!DOCTYPE svg PUBLIC "-//W3C//DTD SVG 1.1//EN" "http://www.w3.org/Graphics/SVG/1.1/DTD/svg11.dtd">
<svg version="1.1" id="Layer_1" xmlns="http://www.w3.org/2000/svg" xmlns:xlink="http://www.w3.org/1999/xlink" x="0px" y="0px"
	 width="170px" height="25.2px" viewBox="0 0 170 25.2" enable-background="new 0 0 170 25.2" xml:space="preserve">
<g>
	<g>
		<path fill="#0089BE" d="M15.761,24.482V13.279l-4.363,11.203H9.435L5.101,13.279v11.203h-4.44V7.264h6.17l3.586,9.345l3.614-9.345
			h6.17V24.48h-4.44V24.482z"/>
		<path fill="#0089BE" d="M22.936,15.887c0-5.239,3.946-8.906,9.213-8.906s9.188,3.667,9.188,8.906c0,5.238-3.922,8.904-9.188,8.904
			S22.936,21.125,22.936,15.887z M36.822,15.887c0-2.812-1.834-4.98-4.674-4.98c-2.865,0-4.698,2.166-4.698,4.98
			c0,2.787,1.833,4.98,4.698,4.98C34.988,20.868,36.822,18.674,36.822,15.887z"/>
		<path fill="#0089BE" d="M54.214,24.482l-4.515-6.479l-1.163,1.443v5.033h-4.439V7.264h4.439v7.072l5.292-7.072h5.471l-6.684,8.054
			l7.048,9.162h-5.449V24.482z"/>
		<path fill="#0089BE" d="M61.491,24.482V7.264h4.44V24.48h-4.44V24.482z"/>
	</g>
	<g>
		
			<linearGradient id="SVGID_1_" gradientUnits="userSpaceOnUse" x1="636.8564" y1="536.5317" x2="636.8564" y2="510.5325" gradientTransform="matrix(1 0 0 1 -558 -512)">
			<stop  offset="0" style="stop-color:#676767"/>
			<stop  offset="1" style="stop-color:#444444"/>
		</linearGradient>
		<path fill="url(#SVGID_1_)" d="M75.476,19.73v-8.005h-2.925V6.829h2.925V2.002h5.594v4.826h3.582v4.896H81.07v6.436
			c0,1.021,0.584,1.791,1.572,1.791c0.619,0,1.243-0.222,1.424-0.439l1.096,4.242c-0.693,0.656-2.08,1.166-4.166,1.166
			C77.411,24.92,75.476,23.129,75.476,19.73z"/>
		
			<linearGradient id="SVGID_2_" gradientUnits="userSpaceOnUse" x1="654.6602" y1="536.5347" x2="654.6602" y2="510.5353" gradientTransform="matrix(1 0 0 1 -558 -512)">
			<stop  offset="0" style="stop-color:#676767"/>
			<stop  offset="1" style="stop-color:#444444"/>
		</linearGradient>
		<path fill="url(#SVGID_2_)" d="M87.029,15.637c0-4.975,3.617-9.249,9.613-9.249c6.067,0,9.649,4.274,9.649,9.249
			c0,4.971-3.582,9.283-9.649,9.283C90.646,24.92,87.029,20.607,87.029,15.637z M100.52,15.637c0-2.34-1.392-4.276-3.875-4.276
			c-2.451,0-3.802,1.937-3.802,4.276c0,2.377,1.351,4.312,3.802,4.312C99.128,19.952,100.52,18.014,100.52,15.637z"/>
		
			<linearGradient id="SVGID_3_" gradientUnits="userSpaceOnUse" x1="676.7656" y1="536.5317" x2="676.7656" y2="510.5367" gradientTransform="matrix(1 0 0 1 -558 -512)">
			<stop  offset="0" style="stop-color:#676767"/>
			<stop  offset="1" style="stop-color:#444444"/>
		</linearGradient>
		<path fill="url(#SVGID_3_)" d="M121.909,24.482v-2.121c-1.099,1.242-3.146,2.56-6.104,2.56c-4.021,0-5.812-2.264-5.812-5.521
			V6.829h5.631V17.1c0,2.119,1.095,2.852,2.922,2.852c1.606,0,2.706-0.879,3.365-1.721V6.829h5.627V24.48h-5.628L121.909,24.482
			L121.909,24.482z"/>
		
			<linearGradient id="SVGID_4_" gradientUnits="userSpaceOnUse" x1="697.6406" y1="536.5347" x2="697.6406" y2="510.5353" gradientTransform="matrix(1 0 0 1 -558 -512)">
			<stop  offset="0" style="stop-color:#676767"/>
			<stop  offset="1" style="stop-color:#444444"/>
		</linearGradient>
		<path fill="url(#SVGID_4_)" d="M131.195,15.637c0-5.52,4.136-9.249,9.654-9.249c3.801,0,6.176,1.681,7.235,3.252l-3.653,3.399
			c-0.695-1.023-1.828-1.679-3.326-1.679c-2.342,0-4.133,1.606-4.133,4.276c0,2.666,1.791,4.312,4.133,4.312
			c1.498,0,2.631-0.73,3.326-1.72l3.653,3.438c-1.062,1.533-3.438,3.252-7.235,3.252C135.331,24.92,131.195,21.193,131.195,15.637z"
			/>
		
			<linearGradient id="SVGID_5_" gradientUnits="userSpaceOnUse" x1="718.209" y1="536.5317" x2="718.209" y2="510.534" gradientTransform="matrix(1 0 0 1 -558 -512)">
			<stop  offset="0" style="stop-color:#676767"/>
			<stop  offset="1" style="stop-color:#444444"/>
		</linearGradient>
		<path fill="url(#SVGID_5_)" d="M163.37,24.482V14.211c0-2.158-1.134-2.851-2.925-2.851c-1.645,0-2.74,0.914-3.397,1.718V24.48
			h-5.629V0.101h5.629v8.881c1.06-1.241,3.144-2.594,6.104-2.594c4.021,0,5.848,2.266,5.848,5.521v12.574L163.37,24.482
			L163.37,24.482z"/>
	</g>
</g>
</svg>
