<?xml version="1.0" encoding="utf-8"?>
<!-- Generator: Adobe Illustrator 16.0.0, SVG Export Plug-In . SVG Version: 6.00 Build 0)  -->
<!DOCTYPE svg PUBLIC "-//W3C//DTD SVG 1.1//EN" "http://www.w3.org/Graphics/SVG/1.1/DTD/svg11.dtd">
<svg version="1.1" id="Layer_1" xmlns="http://www.w3.org/2000/svg" xmlns:xlink="http://www.w3.org/1999/xlink" x="0px" y="0px"
	 width="167px" height="50px" viewBox="0 0 167 50" enable-background="new 0 0 167 50" xml:space="preserve">
<g>
	<g>
		<path fill="#FFFFFF" d="M160.558,49.312H5.834C2.619,49.312,0,46.701,0,43.488V5.824C0,2.611,2.619,0,5.834,0h154.722
			c3.213,0,5.834,2.611,5.834,5.824v37.664C166.39,46.701,163.773,49.312,160.558,49.312"/>
	</g>
	<g>
		<g id="PLAY_4_">
			<defs>
				<path id="SVGID_1_" d="M37.883,20.277l-7.014-4.049c0,0-12.781-7.379-13.531-7.812c-0.752-0.434-1.5-0.174-1.5,0.734
					c0,1.512,0,15.756,0,15.756s0,15.395,0,16.074s0.535,0.973,1.186,0.596c0.652-0.377,13.846-7.992,13.846-7.992l7.014-4.049
					c0,0,5.951-3.438,6.742-3.895c0.793-0.455,0.715-1.084,0.049-1.441C44.004,23.838,37.883,20.277,37.883,20.277z"/>
			</defs>
			<clipPath id="SVGID_2_">
				<use xlink:href="#SVGID_1_"  overflow="visible"/>
			</clipPath>
			<linearGradient id="SVGID_3_" gradientUnits="userSpaceOnUse" x1="24.5273" y1="7.6758" x2="24.5273" y2="42.1367">
				<stop  offset="0" style="stop-color:#207CB0"/>
				<stop  offset="0.3757" style="stop-color:#3CB2BF"/>
				<stop  offset="0.7961" style="stop-color:#58E9CE"/>
				<stop  offset="1" style="stop-color:#63FFD4"/>
			</linearGradient>
			<polygon clip-path="url(#SVGID_2_)" fill="url(#SVGID_3_)" points="15.838,7.676 15.838,24.906 15.838,42.137 33.217,24.906 			
				"/>
			<linearGradient id="SVGID_4_" gradientUnits="userSpaceOnUse" x1="15.8379" y1="16.2275" x2="37.8828" y2="16.2275">
				<stop  offset="0" style="stop-color:#4BC3AE"/>
				<stop  offset="1" style="stop-color:#DEE999"/>
			</linearGradient>
			<polygon clip-path="url(#SVGID_2_)" fill="url(#SVGID_4_)" points="37.883,20.277 30.869,16.229 15.838,7.549 15.838,7.676 
				33.217,24.906 			"/>
			<linearGradient id="SVGID_5_" gradientUnits="userSpaceOnUse" x1="26.8604" y1="24.9062" x2="26.8604" y2="42.2637">
				<stop  offset="0" style="stop-color:#EC403D"/>
				<stop  offset="0.384" style="stop-color:#C93B75"/>
				<stop  offset="0.7988" style="stop-color:#A636AC"/>
				<stop  offset="1" style="stop-color:#9934C2"/>
			</linearGradient>
			<polygon clip-path="url(#SVGID_2_)" fill="url(#SVGID_5_)" points="15.838,42.137 15.838,42.264 30.869,33.584 37.883,29.535 
				33.217,24.906 			"/>
			<linearGradient id="SVGID_6_" gradientUnits="userSpaceOnUse" x1="39.5566" y1="20.2773" x2="39.5566" y2="29.5352">
				<stop  offset="0" style="stop-color:#FF8877"/>
				<stop  offset="0.6121" style="stop-color:#FFB175"/>
				<stop  offset="1" style="stop-color:#FFC774"/>
			</linearGradient>
			<polygon clip-path="url(#SVGID_2_)" fill="url(#SVGID_6_)" points="37.883,20.277 33.217,24.906 37.883,29.535 45.896,24.906 			
				"/>
		</g>
		<g>
			<path fill="#808080" d="M125.24,31.643c-0.652,0-1.248-0.121-1.787-0.359c-0.541-0.242-0.992-0.613-1.355-1.113h-0.113
				c0.074,0.586,0.113,1.141,0.113,1.666v4.123h-1.521V21.438h1.234l0.211,1.371h0.076c0.387-0.549,0.842-0.945,1.359-1.189
				c0.518-0.242,1.113-0.365,1.783-0.365c1.33,0,2.354,0.455,3.078,1.363c0.723,0.908,1.084,2.182,1.084,3.822
				c0,1.646-0.371,2.924-1.102,3.838C127.566,31.188,126.544,31.643,125.24,31.643z M125.021,22.543
				c-1.025,0-1.764,0.285-2.221,0.852c-0.459,0.566-0.693,1.469-0.703,2.707v0.338c0,1.408,0.23,2.416,0.703,3.021
				c0.469,0.607,1.221,0.91,2.256,0.91c0.869,0,1.547-0.35,2.035-1.051c0.494-0.701,0.738-1.666,0.738-2.9
				c0-1.248-0.244-2.207-0.738-2.873C126.603,22.877,125.912,22.543,125.021,22.543z"/>
			<path fill="#808080" d="M132.916,31.461h-1.518V17.23h1.518V31.461z"/>
			<path fill="#808080" d="M141.642,31.461l-0.301-1.428h-0.074c-0.502,0.629-0.998,1.055-1.494,1.275
				c-0.498,0.223-1.117,0.334-1.861,0.334c-0.992,0-1.771-0.258-2.336-0.768c-0.566-0.512-0.846-1.242-0.846-2.188
				c0-2.021,1.617-3.082,4.855-3.182l1.701-0.055V24.83c0-0.787-0.17-1.367-0.508-1.74c-0.338-0.377-0.881-0.564-1.623-0.564
				c-0.836,0-1.783,0.256-2.836,0.77l-0.465-1.162c0.492-0.27,1.035-0.479,1.623-0.631s1.178-0.23,1.77-0.23
				c1.193,0,2.08,0.268,2.656,0.797c0.574,0.531,0.863,1.381,0.863,2.551v6.842H141.642z M138.212,30.391
				c0.943,0,1.689-0.26,2.229-0.779c0.537-0.516,0.811-1.242,0.811-2.176v-0.902l-1.521,0.062c-1.205,0.041-2.074,0.229-2.609,0.561
				c-0.533,0.334-0.801,0.852-0.801,1.551c0,0.549,0.166,0.965,0.5,1.252S137.615,30.391,138.212,30.391z"/>
			<path fill="#808080" d="M143.646,21.438h1.629l2.195,5.715c0.482,1.305,0.781,2.246,0.898,2.826h0.07
				c0.082-0.312,0.246-0.844,0.5-1.596c0.252-0.754,1.082-3.066,2.482-6.945h1.629l-4.309,11.412
				c-0.424,1.127-0.924,1.928-1.494,2.4c-0.572,0.473-1.27,0.709-2.1,0.709c-0.463,0-0.922-0.053-1.373-0.156v-1.215
				c0.336,0.074,0.713,0.111,1.127,0.111c1.041,0,1.785-0.586,2.232-1.756l0.555-1.428L143.646,21.438z"/>
		</g>
		<g>
			<path fill="#7F7F7F" d="M97.121,22.369c0.48,0.398,1.486,1.236,1.486,2.83c0,1.549-0.877,2.283-1.758,2.977
				c-0.273,0.271-0.59,0.566-0.59,1.027s0.316,0.713,0.547,0.902l0.756,0.584c0.922,0.775,1.76,1.49,1.76,2.939
				c0,1.967-1.91,3.961-5.514,3.961c-3.037,0-4.508-1.447-4.508-3c0-0.756,0.375-1.822,1.615-2.559
				c1.297-0.795,3.062-0.9,4.004-0.965c-0.295-0.377-0.629-0.773-0.629-1.422c0-0.357,0.107-0.566,0.209-0.818
				c-0.23,0.02-0.461,0.041-0.672,0.041c-2.221,0-3.477-1.658-3.477-3.291c0-0.965,0.439-2.033,1.34-2.809
				c1.195-0.986,2.619-1.152,3.752-1.152h4.318l-1.342,0.754H97.121z M95.632,31.678c-0.164-0.023-0.273-0.023-0.48-0.023
				c-0.191,0-1.324,0.041-2.201,0.338c-0.463,0.166-1.805,0.67-1.805,2.156c0,1.49,1.447,2.561,3.691,2.561
				c2.012,0,3.082-0.967,3.082-2.266C97.919,33.371,97.226,32.809,95.632,31.678z M96.24,27.693c0.482-0.484,0.525-1.15,0.525-1.529
				c0-1.51-0.902-3.857-2.641-3.857c-0.549,0-1.133,0.271-1.469,0.691c-0.355,0.439-0.463,1.008-0.463,1.551
				c0,1.406,0.818,3.73,2.621,3.73C95.339,28.279,95.904,28.027,96.24,27.693z"/>
			<path fill="#7F7F7F" d="M83.925,31.34c-3.328,0-5.105-2.594-5.105-4.939c0-2.74,2.236-5.084,5.419-5.084c3.072,0,5,2.406,5,4.939
				C89.24,28.725,87.337,31.34,83.925,31.34z M86.541,29.646c0.504-0.67,0.629-1.508,0.629-2.324c0-1.842-0.879-5.357-3.479-5.357
				c-0.687,0-1.376,0.273-1.878,0.713c-0.816,0.73-0.963,1.652-0.963,2.553c0,2.072,1.023,5.48,3.556,5.48
				C85.222,30.711,86.058,30.314,86.541,29.646z"/>
			<path fill="#7F7F7F" d="M72.58,31.34c-3.326,0-5.105-2.594-5.105-4.939c0-2.74,2.24-5.084,5.422-5.084
				c3.078,0,4.998,2.406,4.998,4.939C77.895,28.725,75.992,31.34,72.58,31.34z M75.197,29.646c0.502-0.67,0.627-1.508,0.627-2.324
				c0-1.842-0.877-5.357-3.475-5.357c-0.691,0-1.379,0.273-1.881,0.713c-0.818,0.73-0.963,1.652-0.963,2.553
				c0,2.072,1.025,5.48,3.557,5.48C73.879,30.711,74.717,30.314,75.197,29.646z"/>
			<path fill="#7F7F7F" d="M65.875,31.014l-3.008,0.693c-1.223,0.189-2.316,0.357-3.473,0.357c-5.807,0-8.018-4.271-8.018-7.617
				c0-4.08,3.135-7.869,8.502-7.869c1.135,0,2.229,0.168,3.219,0.441c1.578,0.443,2.314,0.99,2.777,1.305l-1.746,1.664l-0.738,0.168
				l0.527-0.842c-0.713-0.695-2.02-1.979-4.502-1.979c-3.324,0-5.828,2.527-5.828,6.207c0,3.955,2.859,7.682,7.447,7.682
				c1.35,0,2.041-0.275,2.674-0.527v-3.387l-3.178,0.168l1.682-0.906h4.461l-0.545,0.525c-0.15,0.127-0.172,0.168-0.213,0.336
				c-0.021,0.189-0.041,0.801-0.041,1.01V31.014z"/>
			<path fill="#7F7F7F" d="M103.769,30.408c-0.689-0.064-0.836-0.189-0.836-1.012v-0.23V17.488c0.004-0.047,0.006-0.092,0.01-0.137
				c0.084-0.736,0.297-0.861,0.947-1.242h-3.01l-1.578,0.758h1.609v0.012l-0.002-0.01v12.297v0.695c0,0.42-0.082,0.482-0.568,1.111
				h3.725l0.779-0.461C104.488,30.471,104.128,30.449,103.769,30.408z"/>
			<path fill="#7F7F7F" d="M112.333,30.602c-0.227,0.125-0.461,0.271-0.688,0.375c-0.691,0.312-1.402,0.398-2.031,0.398
				c-0.664,0-1.711-0.043-2.777-0.816c-1.482-1.045-2.131-2.842-2.131-4.41c0-3.238,2.635-4.824,4.785-4.824
				c0.752,0,1.527,0.186,2.154,0.584c1.043,0.689,1.314,1.586,1.459,2.068l-4.91,1.984l-1.605,0.125
				c0.52,2.654,2.318,4.199,4.303,4.199c1.064,0,1.842-0.375,2.551-0.73L112.333,30.602z M110.371,24.373
				c0.396-0.146,0.604-0.271,0.604-0.564c0-0.836-0.938-1.797-2.066-1.797c-0.836,0-2.402,0.648-2.402,2.906
				c0,0.354,0.039,0.73,0.062,1.109L110.371,24.373z"/>
			<g>
				<path fill="#7F7F7F" d="M114.351,21.467v1.377h-0.166v-1.377h-0.459v-0.143h1.08v0.143H114.351z"/>
				<path fill="#7F7F7F" d="M116.23,22.844v-1.391h-0.008l-0.426,1.391h-0.129l-0.428-1.391h-0.006v1.391h-0.152v-1.52h0.26
					l0.387,1.229h0.008l0.383-1.229h0.262v1.52H116.23z"/>
			</g>
		</g>
	</g>
</g>
</svg>
