<?xml version="1.0" encoding="utf-8"?>
<!-- Generator: Adobe Illustrator 16.0.0, SVG Export Plug-In . SVG Version: 6.00 Build 0)  -->
<!DOCTYPE svg PUBLIC "-//W3C//DTD SVG 1.1//EN" "http://www.w3.org/Graphics/SVG/1.1/DTD/svg11.dtd">
<svg version="1.1" id="Layer_1" xmlns="http://www.w3.org/2000/svg" xmlns:xlink="http://www.w3.org/1999/xlink" x="0px" y="0px"
	 width="167px" height="50px" viewBox="0 0 167 50" enable-background="new 0 0 167 50" xml:space="preserve">
<g>
	<path fill="#666666" d="M160.56,49.311H5.834C2.619,49.311,0,46.701,0,43.488V5.826C0,2.613,2.619,0,5.834,0h154.722
		c3.213,0,5.834,2.613,5.834,5.826v37.662C166.392,46.701,163.773,49.311,160.56,49.311"/>
</g>
<g>
	<g>
		<path fill="#FFFFFF" d="M37.156,24.396c-0.033-3.979,3.256-5.91,3.406-6c-1.865-2.719-4.752-3.088-5.77-3.117
			c-2.424-0.254-4.779,1.451-6.014,1.451c-1.258,0-3.162-1.428-5.211-1.387c-2.641,0.045-5.109,1.57-6.463,3.943
			c-2.795,4.838-0.711,11.947,1.969,15.857c1.338,1.916,2.902,4.057,4.951,3.98c2.002-0.084,2.752-1.279,5.168-1.279
			c2.398,0,3.1,1.279,5.191,1.229c2.148-0.033,3.5-1.924,4.797-3.855c1.545-2.193,2.168-4.357,2.191-4.469
			C41.324,30.734,37.199,29.158,37.156,24.396"/>
		<path fill="#FFFFFF" d="M33.209,12.707c1.08-1.348,1.814-3.18,1.609-5.043c-1.559,0.068-3.51,1.08-4.633,2.398
			c-0.992,1.162-1.881,3.064-1.654,4.855C30.287,15.049,32.088,14.033,33.209,12.707"/>
	</g>
	<g>
		<path fill="#FFFFFF" d="M61.385,32.006l-1.389-4.285c-0.145-0.439-0.426-1.471-0.828-3.092h-0.049
			c-0.162,0.697-0.424,1.729-0.777,3.092l-1.363,4.285H61.385z M66.182,38.85h-2.801l-1.533-4.822h-5.334l-1.461,4.822h-2.727
			l5.283-16.412h3.266L66.182,38.85z"/>
		<path fill="#FFFFFF" d="M77.064,32.881c0-1.15-0.258-2.102-0.779-2.85c-0.568-0.777-1.33-1.166-2.289-1.166
			c-0.646,0-1.236,0.217-1.764,0.645c-0.529,0.432-0.871,0.994-1.035,1.693c-0.082,0.326-0.121,0.588-0.121,0.801v1.975
			c0,0.857,0.264,1.586,0.791,2.182c0.527,0.59,1.213,0.885,2.057,0.885c0.99,0,1.762-0.381,2.314-1.143
			S77.064,34.133,77.064,32.881 M79.744,32.785c0,2.014-0.547,3.604-1.641,4.773c-0.979,1.037-2.193,1.557-3.648,1.557
			c-1.566,0-2.695-0.561-3.379-1.68v6.209h-2.627v-12.74c0-1.266-0.035-2.559-0.098-3.889h2.312l0.146,1.875h0.047
			c0.877-1.414,2.209-2.119,3.996-2.119c1.395,0,2.559,0.551,3.492,1.652C79.277,29.531,79.744,30.984,79.744,32.785"/>
		<path fill="#FFFFFF" d="M90.675,32.881c0-1.15-0.262-2.102-0.781-2.85c-0.566-0.777-1.332-1.166-2.285-1.166
			c-0.65,0-1.242,0.217-1.766,0.645c-0.529,0.432-0.875,0.994-1.037,1.693c-0.08,0.326-0.121,0.588-0.121,0.801v1.975
			c0,0.857,0.262,1.586,0.789,2.182c0.529,0.588,1.215,0.885,2.059,0.885c0.992,0,1.764-0.381,2.312-1.143
			C90.398,35.141,90.675,34.133,90.675,32.881 M93.353,32.785c0,2.014-0.547,3.604-1.637,4.773c-0.98,1.037-2.199,1.557-3.652,1.557
			c-1.564,0-2.693-0.561-3.379-1.68v6.209h-2.626v-12.74c0-1.266-0.033-2.559-0.098-3.889h2.31l0.146,1.875h0.051
			c0.875-1.414,2.205-2.119,3.992-2.119c1.396,0,2.561,0.551,3.492,1.652C92.884,29.531,93.353,30.984,93.353,32.785"/>
		<path fill="#FFFFFF" d="M108.57,34.244c0,1.398-0.486,2.535-1.455,3.412c-1.07,0.955-2.562,1.434-4.471,1.434
			c-1.766,0-3.184-0.34-4.25-1.021L99,35.879c1.152,0.68,2.42,1.02,3.801,1.02c0.99,0,1.762-0.223,2.311-0.668
			c0.553-0.445,0.83-1.041,0.83-1.789c0-0.666-0.23-1.225-0.682-1.682c-0.457-0.451-1.209-0.875-2.264-1.266
			c-2.877-1.068-4.312-2.637-4.312-4.701c0-1.344,0.506-2.445,1.521-3.309c1.012-0.859,2.357-1.289,4.033-1.289
			c1.492,0,2.73,0.26,3.723,0.777l-0.66,2.143c-0.932-0.504-1.979-0.756-3.152-0.756c-0.93,0-1.658,0.232-2.18,0.686
			c-0.438,0.404-0.658,0.898-0.658,1.486c0,0.646,0.254,1.186,0.758,1.607c0.438,0.387,1.23,0.809,2.383,1.264
			c1.412,0.57,2.451,1.234,3.119,1.998C108.234,32.16,108.57,33.111,108.57,34.244"/>
		<path fill="#FFFFFF" d="M117.287,28.986h-2.898v5.748c0,1.459,0.512,2.191,1.531,2.191c0.473,0,0.861-0.043,1.17-0.123
			l0.072,1.994c-0.518,0.195-1.197,0.291-2.043,0.291c-1.039,0-1.85-0.316-2.436-0.951c-0.584-0.631-0.877-1.697-0.877-3.189V28.98
			h-1.725V27.01h1.725v-2.168l2.582-0.779v2.947h2.898V28.986z"/>
		<path fill="#FFFFFF" d="M127.611,32.893c0-1.084-0.238-2.012-0.707-2.789c-0.547-0.941-1.34-1.412-2.359-1.412
			c-1.057,0-1.863,0.471-2.412,1.412c-0.473,0.777-0.705,1.725-0.705,2.84c0,1.084,0.232,2.018,0.705,2.793
			c0.57,0.943,1.363,1.412,2.391,1.412c1.002,0,1.791-0.484,2.361-1.438C127.369,34.918,127.611,33.979,127.611,32.893
			 M130.335,32.834c0,1.818-0.52,3.311-1.559,4.479c-1.086,1.203-2.533,1.803-4.334,1.803c-1.736,0-3.119-0.576-4.152-1.727
			c-1.029-1.154-1.545-2.605-1.545-4.359c0-1.832,0.531-3.334,1.594-4.502c1.062-1.17,2.496-1.754,4.297-1.754
			c1.74,0,3.131,0.578,4.189,1.729C129.832,29.621,130.335,31.064,130.335,32.834"/>
		<path fill="#FFFFFF" d="M138.884,29.326c-0.258-0.047-0.539-0.072-0.826-0.072c-0.928,0-1.643,0.346-2.146,1.049
			c-0.436,0.615-0.652,1.395-0.652,2.336v6.211h-2.631v-8.111c0-1.361-0.027-2.604-0.076-3.721h2.289l0.096,2.264h0.072
			c0.279-0.779,0.717-1.406,1.316-1.877c0.586-0.426,1.219-0.633,1.9-0.633c0.244,0,0.463,0.018,0.658,0.045V29.326z"/>
		<path fill="#FFFFFF" d="M148.136,31.689c0.02-0.781-0.154-1.453-0.51-2.021c-0.455-0.732-1.158-1.1-2.096-1.1
			c-0.859,0-1.559,0.359-2.09,1.074c-0.441,0.57-0.699,1.25-0.781,2.047H148.136z M150.644,32.371c0,0.471-0.031,0.867-0.098,1.191
			h-7.887c0.031,1.172,0.416,2.064,1.146,2.68c0.662,0.555,1.521,0.83,2.578,0.83c1.168,0,2.234-0.188,3.191-0.561l0.41,1.824
			c-1.119,0.488-2.439,0.73-3.969,0.73c-1.832,0-3.273-0.539-4.322-1.615c-1.045-1.082-1.566-2.533-1.566-4.344
			c0-1.785,0.484-3.271,1.461-4.457c1.021-1.268,2.4-1.898,4.137-1.898c1.707,0,3,0.631,3.875,1.898
			C150.294,29.65,150.644,30.893,150.644,32.371"/>
		<path fill="#FFFFFF" d="M57.766,13.203l-0.68-2.107c-0.072-0.215-0.205-0.721-0.408-1.518h-0.023
			c-0.076,0.342-0.205,0.848-0.381,1.518l-0.666,2.107H57.766z M60.123,16.564H58.75l-0.754-2.369h-2.619l-0.719,2.369H53.32
			l2.592-8.062h1.605L60.123,16.564z"/>
		<path fill="#FFFFFF" d="M66.607,10.75l-2.201,5.814H63.15L61.02,10.75h1.391l0.988,3.074c0.17,0.51,0.312,1,0.424,1.471h0.031
			c0.098-0.422,0.234-0.912,0.422-1.471l0.977-3.074H66.607z"/>
		<path fill="#FFFFFF" d="M71.131,14.566v-0.898c-1.428-0.023-2.141,0.369-2.141,1.174c0,0.303,0.082,0.527,0.252,0.682
			c0.16,0.148,0.373,0.227,0.627,0.227c0.285,0,0.549-0.092,0.795-0.271c0.238-0.18,0.389-0.404,0.443-0.686L71.131,14.566z
			 M72.469,16.562h-1.16l-0.096-0.668h-0.035c-0.398,0.533-0.965,0.801-1.697,0.801c-0.551,0-0.994-0.178-1.33-0.525
			c-0.305-0.32-0.455-0.715-0.455-1.186c0-0.711,0.297-1.252,0.895-1.625c0.592-0.377,1.426-0.561,2.502-0.551v-0.111
			c0-0.762-0.402-1.148-1.207-1.148c-0.574,0-1.08,0.146-1.521,0.432l-0.26-0.85c0.543-0.33,1.207-0.5,1.998-0.5
			c1.523,0,2.283,0.803,2.283,2.404v2.141C72.385,15.758,72.412,16.221,72.469,16.562"/>
		<path fill="#FFFFFF" d="M75.926,16.564h-1.293V10.75h1.293V16.564z M76.07,9.014c0,0.236-0.076,0.42-0.229,0.564
			c-0.152,0.143-0.346,0.215-0.586,0.215c-0.215,0-0.396-0.074-0.543-0.221c-0.148-0.146-0.221-0.332-0.221-0.557
			s0.076-0.406,0.225-0.549c0.156-0.146,0.34-0.215,0.564-0.215s0.408,0.068,0.561,0.215C75.994,8.609,76.07,8.791,76.07,9.014"/>
	</g>
	<rect x="78.223" y="8.082" fill="#FFFFFF" width="1.291" height="8.482"/>
	<g>
		<path fill="#FFFFFF" d="M84.835,14.566v-0.898c-1.427-0.023-2.14,0.369-2.14,1.174c0,0.303,0.082,0.527,0.252,0.682
			c0.164,0.148,0.377,0.227,0.629,0.227c0.283,0,0.548-0.092,0.792-0.271c0.238-0.18,0.391-0.404,0.443-0.686L84.835,14.566z
			 M86.175,16.562h-1.162l-0.094-0.668H84.89c-0.404,0.533-0.967,0.801-1.705,0.801c-0.549,0-0.99-0.178-1.324-0.525
			c-0.305-0.32-0.459-0.715-0.459-1.186c0-0.711,0.301-1.252,0.895-1.625c0.594-0.377,1.426-0.561,2.503-0.551v-0.111
			c0-0.762-0.402-1.148-1.207-1.148c-0.574,0-1.08,0.146-1.518,0.432l-0.266-0.85c0.543-0.33,1.209-0.5,1.998-0.5
			c1.523,0,2.287,0.803,2.287,2.404v2.141C86.091,15.758,86.119,16.221,86.175,16.562"/>
		<path fill="#FFFFFF" d="M92.578,13.619c0-0.564-0.127-1.025-0.385-1.387c-0.281-0.391-0.658-0.586-1.141-0.586
			c-0.316,0-0.605,0.105-0.857,0.312c-0.254,0.205-0.426,0.48-0.512,0.824c-0.033,0.135-0.049,0.271-0.049,0.406v1.014
			c0,0.404,0.131,0.744,0.4,1.031c0.266,0.285,0.6,0.432,1,0.432c0.486,0,0.863-0.184,1.133-0.551
			C92.443,14.748,92.578,14.252,92.578,13.619 M93.89,13.574c0,0.98-0.268,1.762-0.811,2.342c-0.48,0.52-1.066,0.779-1.758,0.779
			c-0.832,0-1.441-0.342-1.83-1.029h-0.027l-0.07,0.9h-1.1c0.027-0.471,0.045-0.996,0.045-1.57V8.084h1.293V11.6
			c0.385-0.645,1.004-0.969,1.865-0.969c0.705,0,1.279,0.27,1.725,0.809C93.671,11.977,93.89,12.691,93.89,13.574"/>
	</g>
	<rect x="95.804" y="8.082" fill="#FFFFFF" width="1.293" height="8.482"/>
	<g>
		<path fill="#FFFFFF" d="M102.947,13.047c0.008-0.383-0.076-0.715-0.25-0.992c-0.229-0.357-0.566-0.537-1.029-0.537
			c-0.424,0-0.766,0.174-1.031,0.525c-0.213,0.277-0.342,0.613-0.381,1.004H102.947z M104.179,13.381
			c0,0.234-0.02,0.426-0.049,0.586h-3.875c0.014,0.576,0.203,1.014,0.559,1.316c0.33,0.273,0.752,0.408,1.27,0.408
			c0.576,0,1.098-0.094,1.566-0.279l0.201,0.9c-0.547,0.238-1.195,0.357-1.947,0.357c-0.9,0-1.609-0.264-2.125-0.791
			c-0.514-0.535-0.77-1.242-0.77-2.139c0-0.873,0.238-1.605,0.719-2.186c0.502-0.623,1.182-0.936,2.031-0.936
			c0.838,0,1.471,0.312,1.904,0.936C104.009,12.047,104.179,12.656,104.179,13.381"/>
		<path fill="#FFFFFF" d="M113.519,13.639c0-0.533-0.113-0.988-0.346-1.371c-0.273-0.461-0.656-0.691-1.156-0.691
			c-0.52,0-0.916,0.23-1.186,0.691c-0.234,0.383-0.35,0.846-0.35,1.396c0,0.535,0.119,0.988,0.35,1.373
			c0.279,0.457,0.67,0.689,1.174,0.689c0.488,0,0.879-0.234,1.154-0.701C113.402,14.633,113.519,14.172,113.519,13.639
			 M114.861,13.611c0,0.891-0.254,1.625-0.768,2.197c-0.535,0.592-1.242,0.887-2.129,0.887c-0.854,0-1.531-0.281-2.037-0.85
			c-0.508-0.566-0.76-1.279-0.76-2.143c0-0.9,0.26-1.637,0.783-2.211s1.225-0.859,2.109-0.859c0.855,0,1.543,0.281,2.059,0.85
			C114.615,12.029,114.861,12.74,114.861,13.611"/>
		<path fill="#FFFFFF" d="M121.824,16.564h-1.293v-3.34c0-1.027-0.389-1.543-1.172-1.543c-0.385,0-0.691,0.143-0.934,0.426
			c-0.24,0.283-0.355,0.613-0.355,0.998v3.457h-1.295v-4.15c0-0.512-0.016-1.066-0.045-1.666h1.133l0.061,0.898h0.037
			c0.15-0.277,0.371-0.51,0.668-0.691c0.352-0.217,0.742-0.326,1.172-0.326c0.539,0,0.996,0.176,1.355,0.529
			c0.445,0.428,0.668,1.07,0.668,1.926V16.564z"/>
		<path fill="#FFFFFF" d="M130.279,11.719h-1.422v2.824c0,0.715,0.248,1.074,0.752,1.074c0.232,0,0.422-0.02,0.572-0.061
			l0.037,0.982c-0.254,0.096-0.59,0.145-1.004,0.145c-0.512,0-0.906-0.156-1.193-0.467s-0.434-0.834-0.434-1.568v-2.93h-0.85V10.75
			h0.85V9.684l1.268-0.381v1.445h1.424V11.719z"/>
		<path fill="#FFFFFF" d="M137.107,16.564h-1.293v-3.316c0-1.045-0.391-1.566-1.17-1.566c-0.596,0-1.008,0.303-1.232,0.91
			c-0.039,0.129-0.062,0.281-0.062,0.465v3.506h-1.289V8.084h1.289v3.492h0.025c0.408-0.629,0.992-0.945,1.748-0.945
			c0.537,0,0.979,0.174,1.328,0.525c0.438,0.441,0.656,1.09,0.656,1.951V16.564z"/>
		<path fill="#FFFFFF" d="M142.529,13.047c0.006-0.383-0.078-0.715-0.252-0.992c-0.227-0.357-0.566-0.537-1.029-0.537
			c-0.424,0-0.766,0.174-1.029,0.525c-0.217,0.277-0.342,0.613-0.379,1.004H142.529z M143.761,13.381
			c0,0.234-0.014,0.426-0.049,0.586h-3.873c0.014,0.576,0.201,1.014,0.559,1.316c0.328,0.273,0.75,0.408,1.268,0.408
			c0.574,0,1.096-0.094,1.564-0.279l0.203,0.9c-0.549,0.238-1.203,0.357-1.951,0.357c-0.898,0-1.609-0.264-2.121-0.791
			c-0.516-0.535-0.771-1.242-0.771-2.139c0-0.873,0.238-1.605,0.719-2.186c0.502-0.623,1.176-0.936,2.027-0.936
			c0.84,0,1.475,0.312,1.906,0.936C143.587,12.047,143.761,12.656,143.761,13.381"/>
	</g>
</g>
</svg>
