<?xml version="1.0" encoding="utf-8"?>
<!-- Generator: Adobe Illustrator 16.0.0, SVG Export Plug-In . SVG Version: 6.00 Build 0)  -->
<!DOCTYPE svg PUBLIC "-//W3C//DTD SVG 1.1//EN" "http://www.w3.org/Graphics/SVG/1.1/DTD/svg11.dtd">
<svg version="1.1" id="Layer_1" xmlns="http://www.w3.org/2000/svg" xmlns:xlink="http://www.w3.org/1999/xlink" x="0px" y="0px"
	 width="412px" height="50px" viewBox="0 0 412 50" enable-background="new 0 0 412 50" xml:space="preserve">
<g>
	<g>
		<path fill="#0089C9" d="M30.202,35.34V12.92l-8.704,22.42h-3.937L8.874,12.92v22.42H0V0.9h12.364l7.167,18.691L26.774,0.9h12.324
			V35.34H30.202z"/>
		<path fill="#0089C9" d="M44.868,18.139c0-10.482,7.918-17.816,18.438-17.816c10.549,0,18.39,7.334,18.39,17.816
			c0,10.477-7.841,17.824-18.39,17.824C52.786,35.963,44.868,28.615,44.868,18.139z M72.675,18.139c0-5.627-3.675-9.969-9.369-9.969
			c-5.724,0-9.395,4.342-9.395,9.969c0,5.564,3.671,9.969,9.395,9.969C69,28.107,72.675,23.703,72.675,18.139z"/>
		<path fill="#0089C9" d="M107.784,35.34l-9.038-12.967l-2.33,2.906V35.34h-8.877V0.9h8.877v14.141L107.014,0.9h10.937
			l-13.373,16.102l14.105,18.338H107.784z"/>
		<path fill="#0089C9" d="M122.648,35.34V0.9h8.891V35.34H122.648z"/>
	</g>
	<g>
		<linearGradient id="SVGID_1_" gradientUnits="userSpaceOnUse" x1="170.5845" y1="34.728" x2="170.5845" y2="1.0413">
			<stop  offset="0" style="stop-color:#676767"/>
			<stop  offset="1" style="stop-color:#444444"/>
		</linearGradient>
		<path fill="url(#SVGID_1_)" d="M186.841,35.27V14.318c0-2.629-1.291-4.627-4.562-4.627c-3.003,0-5.134,1.914-6.191,3.344V35.27
			h-10.985V14.318c0-2.629-1.225-4.627-4.563-4.627c-2.929,0-4.984,1.914-6.126,3.344V35.27h-10.979V0.846h10.979v4.211
			C155.911,3.066,160.324,0,165.735,0c4.93,0,8.345,2.068,9.771,6.133C177.49,3.135,181.987,0,187.401,0
			c6.356,0,10.333,3.283,10.333,10.33V35.27H186.841z"/>
		<linearGradient id="SVGID_2_" gradientUnits="userSpaceOnUse" x1="222.1665" y1="34.7261" x2="222.1665" y2="1.0413">
			<stop  offset="0" style="stop-color:#676767"/>
			<stop  offset="1" style="stop-color:#444444"/>
		</linearGradient>
		<path fill="url(#SVGID_2_)" d="M227.948,35.27v-3.428c-2.148,2.568-6.283,4.281-10.689,4.281c-5.277,0-11.836-3.559-11.836-11.32
			c0-8.355,6.559-11.053,11.836-11.053c4.553,0,8.625,1.416,10.689,3.988v-4.135c0-2.996-2.562-4.98-6.975-4.98
			c-3.422,0-6.982,1.275-9.787,3.629l-3.902-6.918C211.692,1.553,217.6,0,222.872,0c8.271,0,16.039,3.066,16.039,13.75v21.52
			H227.948z M227.948,26.432v-3.074c-1.145-1.553-3.703-2.414-6.137-2.414c-2.914,0-5.504,1.291-5.504,3.982
			c0,2.713,2.59,3.996,5.504,3.996C224.245,28.922,226.803,28.076,227.948,26.432z"/>
		<linearGradient id="SVGID_3_" gradientUnits="userSpaceOnUse" x1="265.8784" y1="34.728" x2="265.8784" y2="1.0413">
			<stop  offset="0" style="stop-color:#676767"/>
			<stop  offset="1" style="stop-color:#444444"/>
		</linearGradient>
		<path fill="url(#SVGID_3_)" d="M272.042,35.27V15.387c0-4.197-2.209-5.695-5.625-5.695c-3.279,0-5.418,1.783-6.695,3.344V35.27
			h-10.975V0.846h10.975v4.211C261.776,2.635,265.836,0,271.608,0c7.852,0,11.402,4.564,11.402,10.891V35.27H272.042z"/>
		<linearGradient id="SVGID_4_" gradientUnits="userSpaceOnUse" x1="307.3735" y1="34.7261" x2="307.3735" y2="1.0413">
			<stop  offset="0" style="stop-color:#676767"/>
			<stop  offset="1" style="stop-color:#444444"/>
		</linearGradient>
		<path fill="url(#SVGID_4_)" d="M313.141,35.27v-3.428c-2.133,2.568-6.26,4.281-10.684,4.281c-5.27,0-11.836-3.559-11.836-11.32
			c0-8.355,6.566-11.053,11.836-11.053c4.572,0,8.625,1.416,10.684,3.988v-4.135c0-2.996-2.551-4.98-6.986-4.98
			c-3.408,0-6.959,1.275-9.746,3.629l-3.93-6.918C296.909,1.553,302.809,0,308.084,0c8.277,0,16.041,3.066,16.041,13.75v21.52
			H313.141z M313.141,26.432v-3.074c-1.123-1.553-3.697-2.414-6.111-2.414c-2.928,0-5.494,1.291-5.494,3.982
			c0,2.713,2.566,3.996,5.494,3.996C309.444,28.922,312.018,28.076,313.141,26.432z"/>
		<linearGradient id="SVGID_5_" gradientUnits="userSpaceOnUse" x1="349.7935" y1="34.7285" x2="349.7935" y2="1.0415">
			<stop  offset="0" style="stop-color:#676767"/>
			<stop  offset="1" style="stop-color:#444444"/>
		</linearGradient>
		<path fill="url(#SVGID_5_)" d="M333.026,44.107l4.779-7.854c2.629,2.859,6.48,3.998,10.469,3.998c3.643,0,8.764-1.492,8.764-7.91
			v-2.637c-2.861,3.344-6.279,5.004-10.178,5.004c-8.422,0-15.199-5.787-15.199-17.393C331.661,5.994,338.221,0,346.86,0
			c3.824,0,7.398,1.506,10.178,4.91V0.846h10.889v31.357c0,14.027-11.098,17.031-19.652,17.031
			C342.34,49.234,337.44,47.736,333.026,44.107z M357.038,21.943v-9.209c-1.367-1.844-4.279-3.043-6.58-3.043
			c-4.318,0-7.531,2.629-7.531,7.625c0,5.057,3.213,7.686,7.531,7.686C352.758,25.002,355.67,23.787,357.038,21.943z"/>
		<linearGradient id="SVGID_6_" gradientUnits="userSpaceOnUse" x1="393.5171" y1="34.7261" x2="393.5171" y2="1.0413">
			<stop  offset="0" style="stop-color:#676767"/>
			<stop  offset="1" style="stop-color:#444444"/>
		</linearGradient>
		<path fill="url(#SVGID_6_)" d="M375.559,18.016C375.559,8.047,383.124,0,393.874,0c10.184,0,17.602,7.471,17.602,19.162v2.344
			H386.95c0.656,3.211,3.648,6.133,8.623,6.133c2.41,0,6.633-1.061,8.547-2.922l4.643,6.84c-3.428,3.068-9.139,4.566-14.414,4.566
			C383.756,36.123,375.559,29.215,375.559,18.016z M393.874,8.477c-4.77,0-6.629,3.414-7.051,5.92h14.176
			C400.708,11.975,398.93,8.477,393.874,8.477z"/>
	</g>
</g>
</svg>
