<?xml version="1.0" encoding="utf-8"?>
<!-- Generator: Adobe Illustrator 16.0.0, SVG Export Plug-In . SVG Version: 6.00 Build 0)  -->
<!DOCTYPE svg PUBLIC "-//W3C//DTD SVG 1.1//EN" "http://www.w3.org/Graphics/SVG/1.1/DTD/svg11.dtd">
<svg version="1.1" id="Layer_1" xmlns="http://www.w3.org/2000/svg" xmlns:xlink="http://www.w3.org/1999/xlink" x="0px" y="0px"
	 width="134.001px" height="16.417px" viewBox="0 0 134.001 16.417" enable-background="new 0 0 134.001 16.417"
	 xml:space="preserve">
<g>
	<g>
		<path fill="#0C89C8" d="M9.84,11.51v-7.3l-2.842,7.3H5.72l-2.826-7.3v7.3H0V0.291h4.021L6.359,6.38l2.354-6.089h4.021V11.51H9.84z
			"/>
		<path fill="#0C89C8" d="M14.616,5.909c0-3.415,2.573-5.803,6.005-5.803c3.431,0,5.987,2.388,5.987,5.803
			c0,3.414-2.557,5.802-5.987,5.802C17.189,11.711,14.616,9.323,14.616,5.909z M23.665,5.909c0-1.834-1.193-3.246-3.044-3.246
			c-1.867,0-3.062,1.412-3.062,3.246c0,1.816,1.194,3.246,3.062,3.246C22.472,9.155,23.665,7.726,23.665,5.909z"/>
		<path fill="#0C89C8" d="M35.102,11.51l-2.942-4.222L31.402,8.23v3.279h-2.894V0.291h2.894v4.608l3.447-4.608h3.566L34.06,5.539
			l4.591,5.971H35.102z"/>
		<path fill="#0C89C8" d="M39.945,11.51V0.291h2.894V11.51H39.945z"/>
	</g>
</g>
<g>
	<linearGradient id="SVGID_1_" gradientUnits="userSpaceOnUse" x1="55.5547" y1="11.311" x2="55.5547" y2="0.3393">
		<stop  offset="0" style="stop-color:#E6E6E6"/>
		<stop  offset="1" style="stop-color:#B3B3B3"/>
	</linearGradient>
	<path fill="url(#SVGID_1_)" d="M60.846,11.487V4.665c0-0.858-0.418-1.509-1.485-1.509c-0.975,0-1.671,0.627-2.019,1.091v7.24
		h-3.574V4.665c0-0.858-0.394-1.509-1.485-1.509c-0.95,0-1.624,0.627-1.995,1.091v7.24h-3.573V0.278h3.573v1.37
		C50.774,0.999,52.213,0,53.977,0c1.602,0,2.716,0.674,3.18,1.996C57.807,1.022,59.269,0,61.031,0c2.065,0,3.364,1.067,3.364,3.366
		v8.121H60.846z"/>
	<linearGradient id="SVGID_2_" gradientUnits="userSpaceOnUse" x1="72.3525" y1="11.3105" x2="72.3525" y2="0.3391">
		<stop  offset="0" style="stop-color:#E6E6E6"/>
		<stop  offset="1" style="stop-color:#B3B3B3"/>
	</linearGradient>
	<path fill="url(#SVGID_2_)" d="M74.232,11.487v-1.113c-0.695,0.834-2.043,1.392-3.48,1.392c-1.717,0-3.852-1.161-3.852-3.689
		c0-2.716,2.135-3.597,3.852-3.597c1.485,0,2.808,0.464,3.48,1.299V4.433c0-0.975-0.835-1.623-2.273-1.623
		c-1.114,0-2.274,0.417-3.18,1.182l-1.275-2.25C68.942,0.511,70.868,0,72.585,0c2.691,0,5.22,0.999,5.22,4.479v7.008H74.232z
		 M74.232,8.61V7.612c-0.371-0.512-1.206-0.789-1.995-0.789c-0.95,0-1.787,0.418-1.787,1.299c0,0.882,0.837,1.299,1.787,1.299
		C73.026,9.421,73.861,9.144,74.232,8.61z"/>
	<linearGradient id="SVGID_3_" gradientUnits="userSpaceOnUse" x1="86.5874" y1="11.311" x2="86.5874" y2="0.3393">
		<stop  offset="0" style="stop-color:#E6E6E6"/>
		<stop  offset="1" style="stop-color:#B3B3B3"/>
	</linearGradient>
	<path fill="url(#SVGID_3_)" d="M88.594,11.487V5.013c0-1.369-0.719-1.856-1.832-1.856c-1.067,0-1.764,0.58-2.183,1.091v7.24h-3.572
		V0.278h3.572v1.37C85.253,0.859,86.576,0,88.455,0c2.554,0,3.713,1.485,3.713,3.551v7.937H88.594z"/>
	<linearGradient id="SVGID_4_" gradientUnits="userSpaceOnUse" x1="100.103" y1="11.3105" x2="100.103" y2="0.3391">
		<stop  offset="0" style="stop-color:#E6E6E6"/>
		<stop  offset="1" style="stop-color:#B3B3B3"/>
	</linearGradient>
	<path fill="url(#SVGID_4_)" d="M101.982,11.487v-1.113c-0.696,0.834-2.043,1.392-3.481,1.392c-1.717,0-3.851-1.161-3.851-3.689
		c0-2.716,2.134-3.597,3.851-3.597c1.485,0,2.808,0.464,3.481,1.299V4.433c0-0.975-0.835-1.623-2.275-1.623
		c-1.113,0-2.273,0.417-3.178,1.182l-1.276-2.25C96.691,0.511,98.617,0,100.334,0c2.692,0,5.222,0.999,5.222,4.479v7.008H101.982z
		 M101.982,8.61V7.612c-0.371-0.512-1.206-0.789-1.996-0.789c-0.951,0-1.786,0.418-1.786,1.299c0,0.882,0.835,1.299,1.786,1.299
		C100.776,9.421,101.611,9.144,101.982,8.61z"/>
	<linearGradient id="SVGID_5_" gradientUnits="userSpaceOnUse" x1="113.9194" y1="11.3101" x2="113.9194" y2="0.3392">
		<stop  offset="0" style="stop-color:#E6E6E6"/>
		<stop  offset="1" style="stop-color:#B3B3B3"/>
	</linearGradient>
	<path fill="url(#SVGID_5_)" d="M108.454,14.364l1.555-2.553c0.859,0.929,2.112,1.3,3.411,1.3c1.185,0,2.854-0.487,2.854-2.576
		V9.677c-0.929,1.091-2.043,1.625-3.318,1.625c-2.738,0-4.942-1.881-4.942-5.662c0-3.689,2.135-5.64,4.942-5.64
		c1.253,0,2.413,0.487,3.318,1.603V0.278h3.551v10.211c0,4.571-3.62,5.545-6.405,5.545
		C111.494,16.034,109.893,15.548,108.454,14.364z M116.274,7.147V4.153c-0.441-0.603-1.392-0.997-2.136-0.997
		c-1.414,0-2.459,0.858-2.459,2.483c0,1.647,1.045,2.506,2.459,2.506C114.883,8.146,115.833,7.751,116.274,7.147z"/>
	<linearGradient id="SVGID_6_" gradientUnits="userSpaceOnUse" x1="128.1538" y1="11.3105" x2="128.1538" y2="0.3391">
		<stop  offset="0" style="stop-color:#E6E6E6"/>
		<stop  offset="1" style="stop-color:#B3B3B3"/>
	</linearGradient>
	<path fill="url(#SVGID_6_)" d="M122.307,5.872c0-3.25,2.459-5.872,5.963-5.872c3.318,0,5.731,2.437,5.731,6.243v0.766h-7.982
		c0.21,1.043,1.185,1.995,2.808,1.995c0.789,0,2.158-0.348,2.784-0.952l1.509,2.229c-1.113,0.998-2.969,1.485-4.688,1.485
		C124.975,11.766,122.307,9.515,122.307,5.872z M128.27,2.763c-1.554,0-2.158,1.113-2.297,1.926h4.617
		C130.497,3.899,129.917,2.763,128.27,2.763z"/>
</g>
</svg>
