<?xml version="1.0" encoding="utf-8"?>
<!-- Generator: Adobe Illustrator 16.0.0, SVG Export Plug-In . SVG Version: 6.00 Build 0)  -->
<!DOCTYPE svg PUBLIC "-//W3C//DTD SVG 1.1//EN" "http://www.w3.org/Graphics/SVG/1.1/DTD/svg11.dtd">
<svg version="1.1" id="Layer_1" xmlns="http://www.w3.org/2000/svg" xmlns:xlink="http://www.w3.org/1999/xlink" x="0px" y="0px"
	 width="437px" height="70px" viewBox="0 0 437 70" enable-background="new 0 0 437 70" xml:space="preserve">
<image overflow="visible" enable-background="new    " width="512" height="512" xlink:href="90AD37DC5B0280C7.png"  transform="matrix(0.1354 0 0 0.1354 360.748 0)">
</image>
<g>
	<g>
		<g>
			<path fill="#0089C9" d="M30.291,51.905V29.435l-8.752,22.471h-3.936L8.906,29.435v22.471H0V17.368h12.375l7.195,18.741
				l7.25-18.741h12.377V51.9L30.291,51.905L30.291,51.905z"/>
			<path fill="#0089C9" d="M44.68,34.661c0-10.513,7.922-17.859,18.482-17.859c10.564,0,18.436,7.352,18.436,17.859
				c0,10.512-7.871,17.86-18.436,17.86C52.602,52.526,44.68,45.173,44.68,34.661z M72.538,34.661c0-5.646-3.678-9.992-9.375-9.992
				c-5.744,0-9.422,4.35-9.422,9.992c0,5.594,3.678,9.989,9.422,9.989C68.86,44.655,72.538,40.255,72.538,34.661z"/>
			<path fill="#0089C9" d="M107.432,51.905l-9.064-12.991L96.04,41.81v10.096h-8.908V17.368h8.908v14.188l10.613-14.188h10.979
				L104.22,33.518L118.357,51.9L107.432,51.905L107.432,51.905z"/>
			<path fill="#0089C9" d="M122.028,51.905V17.368h8.906V51.9L122.028,51.905L122.028,51.905z"/>
		</g>
	</g>
	<g>
		
			<linearGradient id="SVGID_1_" gradientUnits="userSpaceOnUse" x1="-391.1406" y1="1076.9863" x2="-391.1406" y2="1129.1465" gradientTransform="matrix(1 0 0 -1 548 1129)">
			<stop  offset="0" style="stop-color:#E6E6E6"/>
			<stop  offset="1" style="stop-color:#B3B3B3"/>
		</linearGradient>
		<path fill="url(#SVGID_1_)" d="M150.079,42.374V26.317h-5.867v-9.828h5.867V6.812h11.219v9.678h7.182v9.828h-7.182v12.904
			c0,2.049,1.172,3.592,3.152,3.592c1.244,0,2.494-0.438,2.857-0.879l2.201,8.506c-1.393,1.318-4.18,2.351-8.359,2.351
			C153.965,52.786,150.079,49.192,150.079,42.374z"/>
		
			<linearGradient id="SVGID_2_" gradientUnits="userSpaceOnUse" x1="-355.4233" y1="1076.9883" x2="-355.4233" y2="1129.1471" gradientTransform="matrix(1 0 0 -1 548 1129)">
			<stop  offset="0" style="stop-color:#E6E6E6"/>
			<stop  offset="1" style="stop-color:#B3B3B3"/>
		</linearGradient>
		<path fill="url(#SVGID_2_)" d="M173.256,34.159c0-9.976,7.26-18.554,19.283-18.554c12.17,0,19.359,8.578,19.359,18.554
			c0,9.973-7.189,18.627-19.359,18.627C180.516,52.786,173.256,44.132,173.256,34.159z M200.309,34.159
			c0-4.691-2.787-8.576-7.77-8.576c-4.912,0-7.627,3.885-7.627,8.576c0,4.768,2.715,8.649,7.627,8.649
			C197.522,42.813,200.309,38.927,200.309,34.159z"/>
		
			<linearGradient id="SVGID_3_" gradientUnits="userSpaceOnUse" x1="-311.0874" y1="1076.9863" x2="-311.0874" y2="1129.1488" gradientTransform="matrix(1 0 0 -1 548 1129)">
			<stop  offset="0" style="stop-color:#E6E6E6"/>
			<stop  offset="1" style="stop-color:#B3B3B3"/>
		</linearGradient>
		<path fill="url(#SVGID_3_)" d="M243.217,51.905v-4.254c-2.199,2.496-6.305,5.14-12.246,5.14c-8.062,0-11.656-4.552-11.656-11.072
			V16.489h11.291v20.605c0,4.254,2.199,5.719,5.865,5.719c3.23,0,5.426-1.76,6.746-3.44V16.489h11.293v35.416H243.217
			L243.217,51.905z"/>
		
			<linearGradient id="SVGID_4_" gradientUnits="userSpaceOnUse" x1="-269.207" y1="1076.9883" x2="-269.207" y2="1129.1471" gradientTransform="matrix(1 0 0 -1 548 1129)">
			<stop  offset="0" style="stop-color:#E6E6E6"/>
			<stop  offset="1" style="stop-color:#B3B3B3"/>
		</linearGradient>
		<path fill="url(#SVGID_4_)" d="M261.854,34.159c0-11.068,8.291-18.554,19.357-18.554c7.627,0,12.395,3.371,14.521,6.525
			l-7.334,6.812c-1.396-2.051-3.668-3.364-6.676-3.364c-4.688,0-8.283,3.225-8.283,8.571c0,5.354,3.595,8.654,8.283,8.654
			c3.008,0,5.276-1.465,6.676-3.445l7.334,6.896c-2.129,3.08-6.896,6.522-14.521,6.522
			C270.145,52.786,261.854,45.308,261.854,34.159z"/>
		
			<linearGradient id="SVGID_5_" gradientUnits="userSpaceOnUse" x1="-227.9507" y1="1076.9883" x2="-227.9507" y2="1129.1445" gradientTransform="matrix(1 0 0 -1 548 1129)">
			<stop  offset="0" style="stop-color:#E6E6E6"/>
			<stop  offset="1" style="stop-color:#B3B3B3"/>
		</linearGradient>
		<path fill="url(#SVGID_5_)" d="M326.391,51.905V31.302c0-4.326-2.271-5.719-5.863-5.719c-3.301,0-5.502,1.832-6.812,3.44V51.9
			h-11.3V2.999h11.3v17.813c2.125-2.487,6.303-5.207,12.238-5.207c8.062,0,11.73,4.545,11.73,11.072V51.9L326.391,51.905
			L326.391,51.905z"/>
	</g>
</g>
<polygon opacity="0.5" fill="#838383" enable-background="new    " points="430.09,49.829 392.76,49.993 392.76,27.272 
	430.09,27.11 "/>
<g>
	<rect x="396.654" y="24.22" fill="#008ECE" width="39.479" height="22.127"/>
	
		<linearGradient id="SVGID_6_" gradientUnits="userSpaceOnUse" x1="114.1045" y1="899.9121" x2="120.1559" y2="899.9121" gradientTransform="matrix(1 0 0 -1 316 948)">
		<stop  offset="0" style="stop-color:#004B67"/>
		<stop  offset="1" style="stop-color:#0093D3"/>
	</linearGradient>
	<polygon fill="url(#SVGID_6_)" points="430.09,49.829 430.09,46.347 436.129,46.347 	"/>
	<g>
		<path fill="#FFFFFF" d="M403.518,40.41v-9.079h3.832c1.781,0,2.752,1.334,2.752,2.927c0,1.579-0.982,2.926-2.752,2.926h-2.088
			v3.229L403.518,40.41L403.518,40.41z M408.32,34.258c0-0.763-0.516-1.228-1.203-1.228h-1.854v2.45h1.854
			C407.805,35.482,408.32,35.007,408.32,34.258z"/>
		<path fill="#FFFFFF" d="M417.039,40.41l-1.605-3.229h-1.277v3.229h-1.744v-9.079h3.832c1.707,0,2.752,1.236,2.752,2.927
			c0,1.604-0.906,2.463-1.793,2.695l1.844,3.457H417.039z M417.211,34.258c0-0.763-0.527-1.228-1.229-1.228h-1.83v2.45h1.83
			C416.684,35.482,417.211,35.02,417.211,34.258z"/>
		<path fill="#FFFFFF" d="M421.141,35.878c0-2.736,1.805-4.696,4.271-4.696c2.48,0,4.287,1.96,4.287,4.696
			c0,2.733-1.807,4.693-4.287,4.693C422.945,40.573,421.141,38.613,421.141,35.878z M427.908,35.878c0-1.702-0.98-2.981-2.494-2.981
			c-1.51,0-2.479,1.279-2.479,2.981c0,1.688,0.971,2.979,2.479,2.979C426.926,38.857,427.908,37.564,427.908,35.878z"/>
	</g>
</g>
</svg>
