<?xml version="1.0" encoding="utf-8"?>
<!-- Generator: Adobe Illustrator 16.2.1, SVG Export Plug-In . SVG Version: 6.00 Build 0)  -->
<!DOCTYPE svg PUBLIC "-//W3C//DTD SVG 1.1//EN" "http://www.w3.org/Graphics/SVG/1.1/DTD/svg11.dtd">
<svg version="1.1" id="Layer_1" xmlns="http://www.w3.org/2000/svg" xmlns:xlink="http://www.w3.org/1999/xlink" x="0px" y="0px"
	 width="228.333px" height="43px" viewBox="0 0 228.333 43" enable-background="new 0 0 228.333 43" xml:space="preserve">
<g>
	<g>
		<path fill="#0C89C8" d="M14.994,27.094V15.971l-4.33,11.123H8.717L4.408,15.971v11.123H0V10h6.127l3.564,9.278L13.278,10h6.126
			v17.094H14.994z"/>
		<path fill="#0C89C8" d="M22.119,18.56c0-5.202,3.921-8.841,9.148-8.841c5.229,0,9.125,3.639,9.125,8.841
			c0,5.203-3.896,8.842-9.125,8.842C26.04,27.401,22.119,23.762,22.119,18.56z M35.908,18.56c0-2.792-1.818-4.945-4.641-4.945
			c-2.842,0-4.662,2.153-4.662,4.945c0,2.768,1.82,4.946,4.662,4.946C34.09,23.506,35.908,21.327,35.908,18.56z"/>
		<path fill="#0C89C8" d="M53.183,27.094l-4.485-6.435l-1.156,1.437v4.998h-4.406V10h4.406v7.021L52.798,10h5.434l-6.637,7.997
			l6.996,9.098L53.183,27.094L53.183,27.094z"/>
		<path fill="#0C89C8" d="M60.408,27.094V10h4.41v17.094H60.408z"/>
	</g>
	<g>
		
			<linearGradient id="SVGID_1_" gradientUnits="userSpaceOnUse" x1="-138.2144" y1="234.4619" x2="-138.2144" y2="210.9116" gradientTransform="matrix(1 0 0 -1 224 238)">
			<stop  offset="0" style="stop-color:#454646"/>
			<stop  offset="1" style="stop-color:#686869"/>
		</linearGradient>
		<path fill="url(#SVGID_1_)" d="M93.84,27.094V16.712c0-1.307-0.637-2.296-2.264-2.296c-1.48,0-2.541,0.954-3.07,1.658v11.021
			h-5.438V16.712c0-1.307-0.604-2.296-2.262-2.296c-1.447,0-2.471,0.954-3.039,1.658v11.021h-5.438v-17.06h5.438v2.085
			c0.742-0.988,2.934-2.507,5.617-2.507c2.436,0,4.131,1.023,4.838,3.038c0.99-1.483,3.215-3.038,5.896-3.038
			c3.145,0,5.123,1.625,5.123,5.12v12.363H93.84V27.094z"/>
		
			<linearGradient id="SVGID_2_" gradientUnits="userSpaceOnUse" x1="-111.8906" y1="234.4619" x2="-111.8906" y2="210.9122" gradientTransform="matrix(1 0 0 -1 224 238)">
			<stop  offset="0" style="stop-color:#454646"/>
			<stop  offset="1" style="stop-color:#686869"/>
		</linearGradient>
		<path fill="url(#SVGID_2_)" d="M102.803,18.546c0-4.801,3.497-8.934,9.29-8.934c5.861,0,9.322,4.133,9.322,8.934
			c0,4.804-3.461,8.972-9.322,8.972C106.3,27.518,102.803,23.35,102.803,18.546z M115.834,18.546c0-2.26-1.342-4.131-3.742-4.131
			c-2.365,0-3.675,1.871-3.675,4.131c0,2.296,1.31,4.168,3.675,4.168C114.492,22.714,115.834,20.842,115.834,18.546z"/>
		
			<linearGradient id="SVGID_3_" gradientUnits="userSpaceOnUse" x1="-90.0171" y1="234.4639" x2="-90.0171" y2="210.9155" gradientTransform="matrix(1 0 0 -1 224 238)">
			<stop  offset="0" style="stop-color:#454646"/>
			<stop  offset="1" style="stop-color:#686869"/>
		</linearGradient>
		<path fill="url(#SVGID_3_)" d="M124.977,27.094V3.537h5.441v8.512c1.342-1.696,3.176-2.438,5.049-2.438
			c4.24,0,7.521,3.355,7.521,8.934c0,5.793-3.316,8.972-7.521,8.972c-1.906,0-3.639-0.777-5.049-2.4v1.978H124.977z M133.665,22.714
			c2.156,0,3.779-1.589,3.779-4.168c0-2.542-1.623-4.131-3.779-4.131c-1.164,0-2.578,0.635-3.246,1.554v5.228
			C131.086,22.114,132.5,22.714,133.665,22.714z"/>
		
			<linearGradient id="SVGID_4_" gradientUnits="userSpaceOnUse" x1="-74.73" y1="234.4629" x2="-74.73" y2="210.9115" gradientTransform="matrix(1 0 0 -1 224 238)">
			<stop  offset="0" style="stop-color:#454646"/>
			<stop  offset="1" style="stop-color:#686869"/>
		</linearGradient>
		<path fill="url(#SVGID_4_)" d="M146.163,5.374c0-1.732,1.377-3.109,3.105-3.109c1.73,0,3.109,1.376,3.109,3.109
			c0,1.729-1.379,3.143-3.109,3.143C147.54,8.517,146.163,7.104,146.163,5.374z M146.553,27.094v-17.06h5.436v17.06H146.553z"/>
		
			<linearGradient id="SVGID_5_" gradientUnits="userSpaceOnUse" x1="-64.6304" y1="234.4639" x2="-64.6304" y2="210.9062" gradientTransform="matrix(1 0 0 -1 224 238)">
			<stop  offset="0" style="stop-color:#454646"/>
			<stop  offset="1" style="stop-color:#686869"/>
		</linearGradient>
		<path fill="url(#SVGID_5_)" d="M156.649,27.094V3.537h5.441v23.557H156.649z"/>
		
			<linearGradient id="SVGID_6_" gradientUnits="userSpaceOnUse" x1="-54.5317" y1="234.4629" x2="-54.5317" y2="210.9115" gradientTransform="matrix(1 0 0 -1 224 238)">
			<stop  offset="0" style="stop-color:#454646"/>
			<stop  offset="1" style="stop-color:#686869"/>
		</linearGradient>
		<path fill="url(#SVGID_6_)" d="M166.358,5.374c0-1.732,1.379-3.109,3.109-3.109s3.111,1.376,3.111,3.109
			c0,1.729-1.381,3.143-3.111,3.143S166.358,7.104,166.358,5.374z M166.749,27.094v-17.06h5.438v17.06H166.749z"/>
		
			<linearGradient id="SVGID_7_" gradientUnits="userSpaceOnUse" x1="-42.6167" y1="234.4609" x2="-42.6167" y2="210.9136" gradientTransform="matrix(1 0 0 -1 224 238)">
			<stop  offset="0" style="stop-color:#454646"/>
			<stop  offset="1" style="stop-color:#686869"/>
		</linearGradient>
		<path fill="url(#SVGID_7_)" d="M177.977,22.504v-7.736h-2.826v-4.733h2.826v-4.66h5.402v4.66h2.363l1.873,4.733h-4.236v6.216
			c0,0.989,0.564,1.73,1.52,1.73c0.6,0,1.201-0.21,1.377-0.424l1.059,4.097c-0.668,0.634-2.01,1.13-4.023,1.13
			C179.85,27.518,177.977,25.788,177.977,22.504z"/>
		
			<linearGradient id="SVGID_8_" gradientUnits="userSpaceOnUse" x1="-26.4595" y1="234.4629" x2="-26.4595" y2="210.9125" gradientTransform="matrix(1 0 0 -1 224 238)">
			<stop  offset="0" style="stop-color:#454646"/>
			<stop  offset="1" style="stop-color:#686869"/>
		</linearGradient>
		<path fill="url(#SVGID_8_)" d="M190.688,28.896c0.387,0.213,0.92,0.318,1.342,0.318c1.236,0,2.014-0.248,2.295-0.955l0.389-0.918
			l-6.781-17.306h5.725l3.85,10.808l3.883-10.808h5.76l-7.701,19.498c-1.377,3.602-3.953,4.414-7.203,4.483
			c-0.496,0-1.766-0.104-2.332-0.282L190.688,28.896z"/>
	</g>
</g>
</svg>
