<?xml version="1.0" encoding="utf-8"?>
<!-- Generator: Adobe Illustrator 16.2.1, SVG Export Plug-In . SVG Version: 6.00 Build 0)  -->
<!DOCTYPE svg PUBLIC "-//W3C//DTD SVG 1.1//EN" "http://www.w3.org/Graphics/SVG/1.1/DTD/svg11.dtd">
<svg version="1.1" id="Layer_1" xmlns="http://www.w3.org/2000/svg" xmlns:xlink="http://www.w3.org/1999/xlink" x="0px" y="0px"
	 width="110px" height="20px" viewBox="0 0 110 20" enable-background="new 0 0 110 20" xml:space="preserve">
<g>
	<g>
		<path fill="#1089C7" d="M7.526,13.57V7.987L5.351,13.57H4.373l-2.16-5.583v5.583H0V4.99h3.074l1.788,4.656L6.664,4.99h3.074v8.58
			H7.526z"/>
		<path fill="#1089C7" d="M11.179,9.287c0-2.612,1.97-4.438,4.593-4.438c2.625,0,4.582,1.826,4.582,4.438
			c0,2.612-1.957,4.439-4.582,4.439C13.149,13.724,11.179,11.897,11.179,9.287z M18.101,9.287c0-1.402-0.913-2.482-2.329-2.482
			c-1.43,0-2.341,1.08-2.341,2.482c0,1.39,0.911,2.484,2.341,2.484C17.188,11.771,18.101,10.676,18.101,9.287z"/>
		<path fill="#1089C7" d="M26.847,13.57l-2.25-3.229l-0.58,0.721v2.506h-2.211V4.989h2.211v3.524l2.64-3.524h2.727l-3.329,4.014
			l3.513,4.565h-2.719L26.847,13.57L26.847,13.57z"/>
		<path fill="#1089C7" d="M30.554,13.57V4.99h2.213v8.58H30.554z"/>
	</g>
	<g>
		
			<linearGradient id="SVGID_1_" gradientUnits="userSpaceOnUse" x1="-405.5042" y1="598.7515" x2="-405.5042" y2="590.3597" gradientTransform="matrix(1 0 0 1 448 -585.333)">
			<stop  offset="0" style="stop-color:#676868"/>
			<stop  offset="1" style="stop-color:#454545"/>
		</linearGradient>
		<path fill="url(#SVGID_1_)" d="M46.541,13.554v-5.22c0-0.657-0.317-1.154-1.135-1.154c-0.746,0-1.279,0.48-1.545,0.835v5.539
			h-2.734v-5.22c0-0.657-0.303-1.154-1.135-1.154c-0.729,0-1.242,0.48-1.527,0.835v5.539h-2.73V4.98h2.73v1.046
			c0.373-0.498,1.477-1.261,2.824-1.261c1.226,0,2.074,0.515,2.43,1.527c0.498-0.746,1.617-1.527,2.966-1.527
			c1.58,0,2.573,0.817,2.573,2.573v6.214h-2.717V13.554z"/>
		
			<linearGradient id="SVGID_2_" gradientUnits="userSpaceOnUse" x1="-392.656" y1="598.7505" x2="-392.656" y2="590.3593" gradientTransform="matrix(1 0 0 1 448 -585.333)">
			<stop  offset="0" style="stop-color:#676868"/>
			<stop  offset="1" style="stop-color:#454545"/>
		</linearGradient>
		<path fill="url(#SVGID_2_)" d="M56.783,13.554v-0.853c-0.534,0.636-1.562,1.064-2.664,1.064c-1.312,0-2.945-0.886-2.945-2.822
			c0-2.076,1.634-2.75,2.945-2.75c1.137,0,2.146,0.354,2.664,0.994V8.158c0-0.746-0.642-1.243-1.74-1.243
			c-0.852,0-1.739,0.319-2.433,0.905l-0.978-1.722c1.103-0.94,2.573-1.332,3.889-1.332c2.06,0,3.993,0.763,3.993,3.426v5.36h-2.731
			V13.554z M56.783,11.353V10.59c-0.285-0.391-0.924-0.604-1.527-0.604c-0.727,0-1.364,0.319-1.364,0.993
			c0,0.675,0.64,0.995,1.364,0.995C55.86,11.975,56.498,11.761,56.783,11.353z"/>
		
			<linearGradient id="SVGID_3_" gradientUnits="userSpaceOnUse" x1="-381.7654" y1="598.7515" x2="-381.7654" y2="590.3597" gradientTransform="matrix(1 0 0 1 448 -585.333)">
			<stop  offset="0" style="stop-color:#676868"/>
			<stop  offset="1" style="stop-color:#454545"/>
		</linearGradient>
		<path fill="url(#SVGID_3_)" d="M67.77,13.554V8.601c0-1.047-0.554-1.42-1.402-1.42c-0.818,0-1.353,0.444-1.67,0.835v5.539h-2.732
			V4.98h2.732v1.046c0.515-0.604,1.526-1.261,2.963-1.261c1.953,0,2.842,1.135,2.842,2.716v6.071H67.77V13.554z"/>
		
			<linearGradient id="SVGID_4_" gradientUnits="userSpaceOnUse" x1="-371.427" y1="598.7505" x2="-371.427" y2="590.3602" gradientTransform="matrix(1 0 0 1 448 -585.333)">
			<stop  offset="0" style="stop-color:#676868"/>
			<stop  offset="1" style="stop-color:#454545"/>
		</linearGradient>
		<path fill="url(#SVGID_4_)" d="M78.01,13.554v-0.853c-0.532,0.636-1.562,1.064-2.663,1.064c-1.312,0-2.944-0.886-2.944-2.822
			c0-2.076,1.633-2.75,2.944-2.75c1.138,0,2.147,0.354,2.663,0.994V8.158c0-0.746-0.639-1.243-1.738-1.243
			c-0.854,0-1.74,0.319-2.434,0.905l-0.976-1.721c1.1-0.94,2.573-1.332,3.887-1.332c2.06,0,3.994,0.763,3.994,3.426v5.361H78.01z
			 M78.01,11.353V10.59c-0.284-0.391-0.925-0.604-1.525-0.604c-0.729,0-1.365,0.319-1.365,0.993c0,0.675,0.636,0.995,1.365,0.995
			C77.085,11.975,77.724,11.761,78.01,11.353z"/>
		
			<linearGradient id="SVGID_5_" gradientUnits="userSpaceOnUse" x1="-360.8611" y1="598.7495" x2="-360.8611" y2="590.3588" gradientTransform="matrix(1 0 0 1 448 -585.333)">
			<stop  offset="0" style="stop-color:#676868"/>
			<stop  offset="1" style="stop-color:#454545"/>
		</linearGradient>
		<path fill="url(#SVGID_5_)" d="M82.959,15.753l1.191-1.951c0.655,0.709,1.614,0.992,2.605,0.992c0.906,0,2.186-0.373,2.186-1.968
			v-0.658c-0.709,0.834-1.562,1.244-2.537,1.244c-2.097,0-3.783-1.438-3.783-4.332c0-2.822,1.635-4.314,3.783-4.314
			c0.957,0,1.844,0.374,2.537,1.225V4.98h2.715v7.809c0,3.498-2.769,4.242-4.898,4.242C85.285,17.031,84.058,16.66,82.959,15.753z
			 M88.942,10.234v-2.29c-0.338-0.461-1.064-0.763-1.636-0.763c-1.082,0-1.882,0.656-1.882,1.9c0,1.259,0.8,1.917,1.882,1.917
			C87.877,10.996,88.604,10.695,88.942,10.234z"/>
		
			<linearGradient id="SVGID_6_" gradientUnits="userSpaceOnUse" x1="-349.9719" y1="598.7505" x2="-349.9719" y2="590.3602" gradientTransform="matrix(1 0 0 1 448 -585.333)">
			<stop  offset="0" style="stop-color:#676868"/>
			<stop  offset="1" style="stop-color:#454545"/>
		</linearGradient>
		<path fill="url(#SVGID_6_)" d="M93.554,9.258c0-2.485,1.884-4.491,4.562-4.491c2.538,0,4.385,1.863,4.385,4.774v0.586h-6.106
			c0.16,0.799,0.905,1.527,2.146,1.527c0.607,0,1.652-0.267,2.132-0.729l1.154,1.704c-0.854,0.765-2.271,1.136-3.585,1.136
			C95.595,13.767,93.554,12.045,93.554,9.258z M98.117,6.878c-1.188,0-1.65,0.852-1.758,1.474h3.532
			C99.821,7.749,99.377,6.878,98.117,6.878z"/>
	</g>
</g>
</svg>
