<?xml version="1.0" encoding="utf-8"?>
<!-- Generator: Adobe Illustrator 16.0.0, SVG Export Plug-In . SVG Version: 6.00 Build 0)  -->
<!DOCTYPE svg PUBLIC "-//W3C//DTD SVG 1.1//EN" "http://www.w3.org/Graphics/SVG/1.1/DTD/svg11.dtd">
<svg version="1.1" id="Layer_1" xmlns="http://www.w3.org/2000/svg" xmlns:xlink="http://www.w3.org/1999/xlink" x="0px" y="0px"
	 width="64.25px" height="72.75px" viewBox="0 0 64.25 72.75" enable-background="new 0 0 64.25 72.75" xml:space="preserve">
<g>
	<g>
		<path fill="#808080" d="M57.062,8.558h0.382c0.464,0,0.848-0.156,0.848-0.566c0-0.311-0.227-0.595-0.818-0.595
			c-0.186,0-0.313,0-0.411,0.013V8.558z M57.062,10.547h-0.637V7.014c0.297-0.042,0.594-0.099,1.06-0.099
			c0.566,0,0.919,0.114,1.146,0.284c0.196,0.156,0.311,0.395,0.311,0.733c0,0.455-0.301,0.749-0.677,0.85V8.81
			c0.31,0.057,0.507,0.339,0.576,0.862c0.084,0.552,0.155,0.764,0.214,0.875h-0.651c-0.087-0.111-0.153-0.437-0.228-0.902
			c-0.069-0.425-0.31-0.594-0.747-0.594h-0.367V10.547z M57.642,6.067c-1.401,0-2.531,1.175-2.531,2.645s1.13,2.644,2.545,2.644
			c1.4,0.012,2.52-1.174,2.52-2.644s-1.119-2.645-2.52-2.645H57.642z M57.655,5.532c1.752,0,3.15,1.413,3.15,3.167
			c0,1.779-1.398,3.192-3.164,3.192s-3.195-1.414-3.195-3.192c0-1.754,1.43-3.167,3.195-3.167H57.655z"/>
		<path fill="#808080" d="M12.278,62.217l-0.527-3.148c-0.152-0.906-0.348-2.32-0.493-3.302h-0.06
			c-0.154,0.989-0.371,2.446-0.531,3.31l-0.572,3.141H12.278z M9.813,64.264l-0.692,3.49h-2.55l3.184-14.52h3.121l2.89,14.52h-2.563
			l-0.676-3.49H9.813z"/>
		<path fill="#808080" d="M21.566,61.27c0-0.195,0-0.422-0.036-0.627c-0.104-0.719-0.482-1.365-1.098-1.365
			c-1.051,0-1.438,1.52-1.438,3.291c0,2.037,0.553,3.197,1.4,3.197c0.391,0,0.836-0.201,1.082-1.055
			c0.059-0.17,0.089-0.398,0.089-0.664V61.27z M24.182,52.849v11.894c0,0.945,0.053,2.105,0.085,3.012H22.01l-0.147-1.212h-0.055
			c-0.379,0.745-1.203,1.383-2.189,1.383c-2.168,0-3.238-2.389-3.238-5.403c0-3.676,1.6-5.465,3.343-5.465
			c0.913,0,1.503,0.45,1.801,1.096h0.043v-5.304H24.182z"/>
		<path fill="#808080" d="M29.633,65.915c0.999,0,1.247-1.882,1.247-3.44c0-1.481-0.248-3.409-1.289-3.409
			c-1.108,0-1.34,1.928-1.34,3.409c0,1.789,0.297,3.44,1.36,3.44H29.633z M29.584,67.925c-2.409,0-3.921-1.938-3.921-5.401
			c0-3.783,1.939-5.467,3.979-5.467c2.379,0,3.875,2.033,3.875,5.402c0,4.332-2.34,5.466-3.91,5.466H29.584z"/>
		<path fill="#808080" d="M37.594,63.996c0,0.262,0.048,0.507,0.104,0.671c0.262,0.882,0.705,1.099,1.063,1.099
			c1.013,0,1.419-1.283,1.419-3.333c0-1.867-0.433-3.155-1.43-3.155c-0.496,0-0.912,0.54-1.06,1.12
			c-0.05,0.179-0.098,0.466-0.098,0.661V63.996z M34.978,52.849h2.616v5.481h0.042c0.514-0.809,1.203-1.273,2.197-1.273
			c1.974,0,2.965,2.246,2.965,5.176c0,3.708-1.478,5.692-3.391,5.692c-0.914,0-1.521-0.405-2.066-1.431h-0.058l-0.147,1.26h-2.245
			c0.034-0.875,0.087-2.066,0.087-3.012V52.849z"/>
		<path fill="#808080" d="M49.065,61.487c0.015-1.478-0.419-2.511-1.246-2.511c-0.949,0-1.352,1.385-1.38,2.511H49.065z
			 M46.433,63.34c0.027,1.9,1.031,2.521,2.271,2.521c0.787,0,1.463-0.174,1.961-0.363l0.35,1.881
			c-0.69,0.301-1.764,0.488-2.789,0.488c-2.812,0-4.34-1.918-4.34-5.195c0-3.518,1.774-5.629,4.102-5.629
			c2.242,0,3.483,1.865,3.483,4.914c0,0.697-0.026,1.089-0.072,1.396L46.433,63.34z"/>
		<polygon fill="#808080" points="34.739,5.397 51.475,5.397 51.475,45.469 		"/>
		<polygon fill="#808080" points="22.944,5.397 6.195,5.397 6.195,45.469 		"/>
		<polygon fill="#808080" points="28.842,20.165 39.509,45.467 32.52,45.467 29.328,37.409 21.523,37.409 		"/>
	</g>
</g>
</svg>
