<?xml version="1.0" encoding="utf-8"?>
<!-- Generator: Adobe Illustrator 16.0.0, SVG Export Plug-In . SVG Version: 6.00 Build 0)  -->
<!DOCTYPE svg PUBLIC "-//W3C//DTD SVG 1.1//EN" "http://www.w3.org/Graphics/SVG/1.1/DTD/svg11.dtd">
<svg version="1.1" id="Layer_1" xmlns="http://www.w3.org/2000/svg" xmlns:xlink="http://www.w3.org/1999/xlink" x="0px" y="0px"
	 width="139.347px" height="53px" viewBox="0 0 139.347 53" enable-background="new 0 0 139.347 53" xml:space="preserve">
<g>
	<g>
		<g>
			<path fill="#808080" d="M10.388,47.388c-2.605,0-4.65-2.637-4.65-6.001V11.995c0-3.366,2.041-6.002,4.65-6.002l0.156,0.004
				l119.317,5.112c2.671,0.106,4.843,2.272,4.843,4.823v21.516c0,2.55-2.172,4.713-4.843,4.823L10.54,47.385L10.388,47.388z"/>
			<g>
				<linearGradient id="SVGID_1_" gradientUnits="userSpaceOnUse" x1="136.9346" y1="11.562" x2="136.9346" y2="39.5627">
					<stop  offset="0" style="stop-color:#9B9B9B"/>
					<stop  offset="0.2048" style="stop-color:#8E8E8E"/>
					<stop  offset="0.7103" style="stop-color:#717171"/>
					<stop  offset="1" style="stop-color:#666666"/>
				</linearGradient>
				<path fill="url(#SVGID_1_)" d="M135.941,12.452v-0.018c0-0.1,0.06-0.154,0.172-0.154h1.646c0.111,0,0.168,0.054,0.168,0.154
					v0.018c0,0.101-0.057,0.158-0.168,0.158h-0.637v1.839c0,0.111-0.058,0.168-0.165,0.168h-0.051c-0.105,0-0.157-0.057-0.157-0.168
					V12.61h-0.637C136.001,12.61,135.941,12.552,135.941,12.452z"/>
				<linearGradient id="SVGID_2_" gradientUnits="userSpaceOnUse" x1="139.3467" y1="11.5625" x2="139.3467" y2="39.5597">
					<stop  offset="0" style="stop-color:#9B9B9B"/>
					<stop  offset="0.2048" style="stop-color:#8E8E8E"/>
					<stop  offset="0.7103" style="stop-color:#717171"/>
					<stop  offset="1" style="stop-color:#666666"/>
				</linearGradient>
				<path fill="url(#SVGID_2_)" d="M138.247,14.449V12.47c0-0.126,0.084-0.205,0.213-0.205h0.097c0.144,0,0.183,0.054,0.243,0.187
					l0.545,1.239l0.556-1.239c0.059-0.136,0.101-0.187,0.237-0.187h0.091c0.133,0,0.218,0.079,0.218,0.205v1.979
					c0,0.111-0.047,0.168-0.154,0.168h-0.05c-0.104,0-0.146-0.057-0.146-0.168v-1.706l-0.514,1.157
					c-0.042,0.093-0.081,0.158-0.238,0.158c-0.16,0-0.194-0.064-0.237-0.158l-0.507-1.146v1.695c0,0.111-0.043,0.168-0.149,0.168
					h-0.058C138.291,14.617,138.247,14.56,138.247,14.449z"/>
			</g>
		</g>
		<g>
			<path fill="#767676" d="M12.923,32.82l2.754-13.097c0.27-1.271,1.053-1.858,2.252-1.858h8.73c1,0,1.541,0.392,1.541,1.075
				c0,0.392-0.223,1.271-0.613,1.663c-0.268,0.293-0.586,0.392-1.393,0.392H19.03l-0.842,3.858h5.355
				c0.93,0,1.416,0.392,1.416,1.002c0,0.367-0.168,1.174-0.535,1.565c-0.248,0.244-0.562,0.391-1.297,0.391h-5.576l-0.865,4.178
				h7.141c1.006,0,1.518,0.392,1.518,1.052c0,0.416-0.195,1.271-0.588,1.688c-0.268,0.269-0.611,0.392-1.395,0.392h-8.633
				C13.241,35.12,12.579,34.36,12.923,32.82z"/>
			<path fill="#767676" d="M29.392,33.97l-0.977-6.797c-0.246-1.859-0.809-2.348-1.787-2.421c-0.049,0,0.172-1.761,2.15-1.761
				c0.734,0,1.248,0.196,1.713,0.66c0.662,0.661,0.955,1.737,1.078,3.375l0.439,4.451l4.842-8.461
				c0.021-0.048,2.373,0.075,2.373,1.688c0,0.538-0.197,0.954-0.734,1.76l-5.039,7.752c-0.561,0.88-1.49,1.027-2.15,1.027
				C30.419,35.242,29.513,34.924,29.392,33.97z"/>
			<path fill="#767676" d="M39.319,30.327c0-4.328,3.326-7.435,7.508-7.435c3.031,0,4.721,1.418,4.721,3.497
				c0,2.446-1.566,3.914-6.871,3.914c-0.734,0-1.541-0.048-2.447-0.099v0.074c0,1.662,1.029,2.689,2.908,2.689
				c1.592,0,2.742-0.709,3.521-1.737c0.049-0.073,1.469,0.173,1.469,1.298c0,0.635-0.195,0.978-0.658,1.467
				c-0.908,0.88-2.324,1.418-4.377,1.418C41.177,35.413,39.319,33.261,39.319,30.327z M42.671,28.102
				c0.635,0.048,1.197,0.073,1.711,0.073c3.326,0,4.256-0.758,4.256-1.688c0-0.635-0.66-1.271-1.957-1.271
				C44.872,25.216,43.38,26.462,42.671,28.102z"/>
			<path fill="#767676" d="M57.075,25.216c0.951-1.443,2.348-2.323,4.107-2.323c2.445,0,3.865,1.59,3.865,3.864
				c0,0.856-0.295,2.03-0.711,3.499c-0.316,1.196-0.562,2.15-0.562,2.639c0,0.686,0.318,0.955,0.979,1.053
				c0.051,0-0.195,1.418-2.078,1.418c-1.613,0-2.371-0.831-2.371-2.128c0-0.685,0.219-1.589,0.586-2.934
				c0.318-1.125,0.539-2.056,0.539-2.568c0-1.223-0.686-1.956-1.934-1.956c-1.197,0-1.979,0.562-2.738,1.736l-1.271,6.064
				c-0.268,1.223-0.711,1.639-1.592,1.639H53.53c-0.93,0-1.762-0.367-1.492-1.639l2.176-10.271c0.025-0.074,0.416-0.219,0.955-0.219
				C56.146,23.089,57.101,23.626,57.075,25.216z"/>
			<path fill="#767676" d="M67.642,30.913l1.049-5.037h-0.586c-0.783,0-1.246-0.342-1.246-0.905c0-0.342,0.146-1.077,0.486-1.444
				c0.246-0.219,0.514-0.341,1.201-0.341h0.709l0.146-0.684c0.342-1.762,1.051-2.495,2.566-2.495c0.734,0,1.297,0.293,1.273,0.416
				l-0.588,2.764h2.005c0.832,0,1.297,0.367,1.297,0.906c0,0.342-0.146,1.1-0.514,1.442c-0.221,0.22-0.514,0.342-1.175,0.342H72.04
				l-1.049,4.891c-0.318,1.443,0.168,2.054,1.123,2.054c0.611,0,1.15-0.317,1.469-0.61c0.098-0.074,0.562,0.318,0.562,1.051
				c0,0.514-0.194,0.954-0.587,1.346c-0.537,0.537-1.395,0.832-2.545,0.832C68.274,35.438,67.026,33.799,67.642,30.913z"/>
			<path fill="#767676" d="M79.306,33.09c-0.465,1.541-1.223,2.128-2.567,2.128c-0.66,0-1.226-0.294-1.199-0.416l3.218-15.249
				c0.27-1.248,0.71-1.663,1.588-1.663h0.394c0.903,0,1.761,0.391,1.466,1.663l-1.112,5.321c0.878-1.223,2.15-1.981,3.79-1.981
				c2.567,0,4.693,1.834,4.693,5.11c0,3.767-2.469,7.41-6.234,7.41C81.579,35.413,80.039,34.558,79.306,33.09z M80.526,27.49
				l-0.364,1.712c-0.366,1.906,0.66,3.496,2.688,3.496c2.176,0,3.375-2.104,3.375-4.254c0-1.736-1.102-2.813-2.545-2.813
				C82.411,25.631,81.261,26.389,80.526,27.49z"/>
			<path fill="#767676" d="M95.487,25.191c0.734-1.442,1.835-2.299,3.229-2.299c1.195,0,2.128,0.685,2.128,1.687
				c0,1.688-1.493,2.226-1.542,2.177c-0.342-0.367-0.829-0.709-1.661-0.709c-1.542,0-2.521,1.711-3.058,4.231l-0.686,3.301
				c-0.268,1.223-0.708,1.639-1.589,1.639h-0.366c-0.93,0-1.762-0.367-1.492-1.639l2.177-10.271
				c0.024-0.074,0.416-0.219,0.952-0.219C94.558,23.089,95.512,23.626,95.487,25.191z"/>
			<path fill="#767676" d="M101.016,32.063l1.563-7.312c0.27-1.248,0.709-1.662,1.59-1.662h0.367c0.931,0,1.762,0.366,1.493,1.662
				l-1.591,7.41c-0.27,1.32-0.047,1.834,0.954,1.98c0.024,0.023-0.172,1.223-2.007,1.223
				C101.162,35.364,100.6,33.995,101.016,32.063z M103.525,19.87c0-1.174,0.802-2.005,2.004-2.005c1.224,0,1.908,0.612,1.908,1.492
				c0,1.149-0.806,2.006-2.006,2.006C104.208,21.362,103.525,20.75,103.525,19.87z"/>
			<path fill="#767676" d="M108.495,30.913l1.055-5.037h-0.586c-0.784,0-1.248-0.342-1.248-0.905c0-0.342,0.146-1.077,0.488-1.444
				c0.246-0.219,0.514-0.341,1.199-0.341h0.71l0.146-0.684c0.341-1.762,1.05-2.495,2.567-2.495c0.734,0,1.296,0.293,1.271,0.416
				l-0.587,2.764h2.001c0.836,0,1.301,0.367,1.301,0.906c0,0.342-0.15,1.1-0.514,1.442c-0.222,0.22-0.516,0.342-1.173,0.342H112.9
				l-1.052,4.891c-0.318,1.443,0.173,2.054,1.125,2.054c0.611,0,1.149-0.317,1.465-0.61c0.101-0.074,0.566,0.318,0.566,1.051
				c0,0.514-0.196,0.954-0.59,1.346c-0.535,0.537-1.393,0.832-2.543,0.832C109.134,35.438,107.886,33.799,108.495,30.913z"/>
			<path fill="#767676" d="M116.791,30.327c0-4.328,3.323-7.435,7.507-7.435c3.029,0,4.719,1.418,4.719,3.497
				c0,2.446-1.566,3.914-6.872,3.914c-0.733,0-1.542-0.048-2.446-0.099v0.074c0,1.662,1.027,2.689,2.911,2.689
				c1.589,0,2.739-0.709,3.522-1.737c0.048-0.073,1.465,0.173,1.465,1.298c0,0.635-0.195,0.978-0.659,1.467
				c-0.904,0.88-2.323,1.418-4.377,1.418C118.646,35.413,116.791,33.261,116.791,30.327z M120.141,28.102
				c0.634,0.048,1.196,0.073,1.71,0.073c3.326,0,4.256-0.758,4.256-1.688c0-0.635-0.661-1.271-1.957-1.271
				C122.341,25.216,120.848,26.462,120.141,28.102z"/>
		</g>
		<g>
			<path fill="#FFFFFF" d="M13.278,32.464l2.758-13.097c0.27-1.271,1.051-1.858,2.25-1.858h8.73c1.002,0,1.537,0.391,1.537,1.075
				c0,0.392-0.217,1.271-0.611,1.663c-0.268,0.293-0.584,0.392-1.393,0.392h-7.164l-0.84,3.858h5.355
				c0.926,0,1.418,0.392,1.418,1.002c0,0.367-0.174,1.174-0.541,1.565c-0.242,0.244-0.561,0.392-1.293,0.392h-5.578l-0.861,4.177
				h7.141c1.002,0,1.516,0.392,1.516,1.052c0,0.416-0.195,1.271-0.586,1.688c-0.271,0.27-0.613,0.391-1.395,0.391h-8.633
				C13.597,34.763,12.937,34.003,13.278,32.464z"/>
			<path fill="#FFFFFF" d="M29.749,33.614l-0.979-6.798c-0.244-1.859-0.807-2.349-1.785-2.421c-0.049,0,0.17-1.761,2.152-1.761
				c0.732,0,1.246,0.196,1.711,0.661c0.66,0.66,0.955,1.736,1.076,3.375l0.438,4.451l4.844-8.461
				c0.023-0.048,2.373,0.074,2.373,1.688c0,0.538-0.195,0.954-0.734,1.76l-5.037,7.752c-0.564,0.881-1.492,1.027-2.152,1.027
				C30.774,34.886,29.87,34.567,29.749,33.614z"/>
			<path fill="#FFFFFF" d="M39.677,29.97c0-4.328,3.326-7.434,7.508-7.434c3.031,0,4.719,1.418,4.719,3.496
				c0,2.446-1.564,3.914-6.871,3.914c-0.734,0-1.541-0.049-2.445-0.1v0.074c0,1.663,1.027,2.69,2.908,2.69
				c1.592,0,2.742-0.71,3.523-1.737c0.049-0.072,1.467,0.173,1.467,1.297c0,0.635-0.197,0.979-0.66,1.467
				c-0.904,0.881-2.322,1.418-4.379,1.418C41.536,35.056,39.677,32.905,39.677,29.97z M43.026,27.745
				c0.637,0.049,1.199,0.072,1.713,0.072c3.326,0,4.252-0.757,4.252-1.687c0-0.635-0.658-1.271-1.953-1.271
				C45.226,24.859,43.737,26.106,43.026,27.745z"/>
			<path fill="#FFFFFF" d="M57.433,24.859c0.953-1.442,2.346-2.323,4.107-2.323c2.445,0,3.863,1.589,3.863,3.864
				c0,0.856-0.293,2.029-0.709,3.498c-0.318,1.197-0.562,2.15-0.562,2.64c0,0.685,0.318,0.954,0.979,1.052
				c0.049,0-0.195,1.418-2.078,1.418c-1.613,0-2.373-0.83-2.373-2.127c0-0.685,0.221-1.59,0.588-2.934
				c0.318-1.125,0.539-2.056,0.539-2.569c0-1.222-0.686-1.956-1.934-1.956c-1.197,0-1.98,0.562-2.738,1.736l-1.273,6.064
				c-0.27,1.223-0.707,1.64-1.588,1.64h-0.365c-0.932,0-1.764-0.367-1.494-1.64l2.178-10.27c0.021-0.074,0.416-0.22,0.953-0.22
				C56.503,22.732,57.456,23.27,57.433,24.859z"/>
			<path fill="#FFFFFF" d="M67.995,30.557l1.053-5.037H68.46c-0.783,0-1.246-0.343-1.246-0.905c0-0.343,0.148-1.077,0.49-1.444
				c0.242-0.219,0.512-0.342,1.199-0.342h0.707l0.146-0.684c0.344-1.761,1.053-2.495,2.566-2.495c0.734,0,1.299,0.293,1.273,0.416
				l-0.588,2.763h2.007c0.829,0,1.297,0.367,1.297,0.906c0,0.342-0.149,1.1-0.515,1.442c-0.223,0.221-0.516,0.343-1.175,0.343
				h-2.226l-1.053,4.891c-0.314,1.442,0.174,2.054,1.127,2.054c0.611,0,1.15-0.318,1.467-0.611c0.098-0.072,0.562,0.318,0.562,1.053
				c0,0.513-0.195,0.953-0.586,1.344c-0.539,0.538-1.395,0.832-2.543,0.832C68.632,35.081,67.386,33.442,67.995,30.557z"/>
			<path fill="#FFFFFF" d="M79.662,32.733c-0.468,1.541-1.224,2.128-2.566,2.128c-0.661,0-1.225-0.294-1.202-0.417l3.221-15.248
				c0.268-1.248,0.709-1.663,1.59-1.663h0.392c0.903,0,1.759,0.391,1.466,1.663l-1.115,5.32c0.881-1.223,2.153-1.98,3.789-1.98
				c2.569,0,4.693,1.834,4.693,5.11c0,3.767-2.465,7.409-6.231,7.409C81.935,35.056,80.394,34.2,79.662,32.733z M80.884,27.133
				l-0.367,1.713c-0.367,1.907,0.66,3.496,2.691,3.496c2.176,0,3.374-2.103,3.374-4.255c0-1.736-1.101-2.812-2.543-2.812
				C82.767,25.275,81.618,26.032,80.884,27.133z"/>
			<path fill="#FFFFFF" d="M95.845,24.835c0.733-1.442,1.832-2.299,3.227-2.299c1.199,0,2.129,0.685,2.129,1.687
				c0,1.688-1.492,2.226-1.542,2.177c-0.342-0.368-0.831-0.709-1.663-0.709c-1.54,0-2.518,1.711-3.057,4.23l-0.686,3.301
				c-0.267,1.223-0.705,1.64-1.59,1.64H92.3c-0.932,0-1.761-0.367-1.494-1.64l2.178-10.27c0.024-0.074,0.416-0.22,0.954-0.22
				C94.915,22.732,95.868,23.27,95.845,24.835z"/>
			<path fill="#FFFFFF" d="M101.371,31.707l1.566-7.312c0.27-1.248,0.708-1.663,1.588-1.663h0.367c0.93,0,1.762,0.366,1.493,1.663
				l-1.588,7.409c-0.272,1.32-0.052,1.834,0.952,1.98c0.023,0.024-0.172,1.223-2.007,1.223
				C101.519,35.007,100.958,33.638,101.371,31.707z M103.882,19.514c0-1.174,0.805-2.006,2.004-2.006
				c1.224,0,1.906,0.612,1.906,1.492c0,1.149-0.806,2.006-2.004,2.006C104.564,21.006,103.882,20.394,103.882,19.514z"/>
			<path fill="#FFFFFF" d="M108.854,30.557l1.052-5.037h-0.587c-0.783,0-1.245-0.343-1.245-0.905c0-0.343,0.144-1.077,0.487-1.444
				c0.244-0.219,0.513-0.342,1.198-0.342h0.708l0.149-0.684c0.342-1.761,1.046-2.495,2.566-2.495c0.733,0,1.294,0.293,1.271,0.416
				l-0.587,2.763h2.004c0.832,0,1.297,0.367,1.297,0.906c0,0.342-0.146,1.1-0.514,1.442c-0.221,0.221-0.514,0.343-1.174,0.343
				h-2.225l-1.053,4.891c-0.318,1.442,0.172,2.054,1.123,2.054c0.614,0,1.15-0.318,1.471-0.611c0.096-0.072,0.563,0.318,0.563,1.053
				c0,0.513-0.198,0.953-0.591,1.344c-0.535,0.538-1.391,0.832-2.541,0.832C109.491,35.081,108.243,33.442,108.854,30.557z"/>
			<path fill="#FFFFFF" d="M117.146,29.97c0-4.328,3.327-7.434,7.506-7.434c3.033,0,4.721,1.418,4.721,3.496
				c0,2.446-1.563,3.914-6.873,3.914c-0.732,0-1.539-0.049-2.442-0.1v0.074c0,1.663,1.022,2.69,2.909,2.69
				c1.588,0,2.738-0.71,3.521-1.737c0.05-0.072,1.469,0.173,1.469,1.297c0,0.635-0.195,0.979-0.659,1.467
				c-0.907,0.881-2.326,1.418-4.379,1.418C119.005,35.056,117.146,32.905,117.146,29.97z M120.495,27.745
				c0.637,0.049,1.199,0.072,1.713,0.072c3.324,0,4.256-0.757,4.256-1.687c0-0.635-0.662-1.271-1.956-1.271
				C122.697,24.859,121.204,26.106,120.495,27.745z"/>
		</g>
	</g>
</g>
</svg>
