<?xml version="1.0" encoding="utf-8"?>
<!-- Generator: Adobe Illustrator 16.0.0, SVG Export Plug-In . SVG Version: 6.00 Build 0)  -->
<!DOCTYPE svg PUBLIC "-//W3C//DTD SVG 1.1//EN" "http://www.w3.org/Graphics/SVG/1.1/DTD/svg11.dtd">
<svg version="1.1" id="Layer_1" xmlns="http://www.w3.org/2000/svg" xmlns:xlink="http://www.w3.org/1999/xlink" x="0px" y="0px"
	 width="213.793px" height="110.345px" viewBox="0 0 213.793 110.345" enable-background="new 0 0 213.793 110.345"
	 xml:space="preserve">
<g>
	<g>
		<path fill="#666666" d="M63.407,34.629c0,0.035-0.164,0.035-0.164-0.023c0-0.294-0.06-0.614-0.213-0.779
			c-0.226-0.224-0.779-0.389-2.04-0.389c-0.261,0-0.415,0.012-0.53,0.023c-0.036,0.118-0.049,0.59-0.049,1.333v2.879
			c0,2.324,0.105,2.525,0.246,2.607c0.155,0.083,0.449,0.154,0.912,0.201c0.045,0.012,0.045,0.154,0.01,0.154
			c-1.098,0-2.063,0-3.186,0c-0.033,0-0.033-0.142,0.013-0.154c0.459-0.047,0.753-0.118,0.907-0.201
			c0.143-0.082,0.246-0.283,0.246-2.607v-2.879c0-0.743-0.009-1.215-0.044-1.333c-0.119-0.012-0.332-0.023-0.591-0.023
			c-1.215,0-1.758,0.129-2.053,0.389c-0.189,0.165-0.308,0.519-0.355,0.802c-0.012,0.059-0.164,0.023-0.164-0.023
			c0.072-0.602,0.143-1.25,0.164-1.652c0-0.022,0.037-0.047,0.083-0.047c0.413,0.071,1.333,0.13,3.386,0.13
			c2.819,0,3.244-0.083,3.446-0.153c0.058-0.012,0.069,0.023,0.069,0.047C63.501,33.378,63.478,34.015,63.407,34.629z"/>
		<path fill="#666666" d="M70.033,40.634c-0.048,0-0.048-0.142,0.011-0.154c0.461-0.047,0.66-0.118,0.801-0.201
			c0.145-0.082,0.251-0.283,0.251-2.607v-0.731h-4.46v0.731c0,2.324,0.106,2.525,0.247,2.607c0.143,0.083,0.341,0.154,0.802,0.201
			c0.059,0.012,0.059,0.154,0.023,0.154c-1.131,0-1.886,0-2.996,0c-0.037,0-0.045-0.142,0.013-0.154
			c0.459-0.047,0.661-0.118,0.804-0.201c0.151-0.082,0.244-0.283,0.244-2.607V35.95c0-2.324-0.093-2.537-0.244-2.608
			c-0.143-0.083-0.345-0.153-0.804-0.2c-0.058-0.011-0.05-0.153-0.013-0.153c1.087,0,1.84,0,2.996,0
			c0.035,0,0.035,0.142-0.023,0.153c-0.461,0.047-0.659,0.118-0.802,0.2c-0.141,0.071-0.247,0.284-0.247,2.608v0.554h4.46V35.95
			c0-2.324-0.106-2.537-0.251-2.608c-0.141-0.083-0.34-0.153-0.801-0.2c-0.059-0.011-0.059-0.153-0.011-0.153
			c1.085,0,1.854,0,2.985,0c0.047,0,0.047,0.142-0.014,0.153c-0.458,0.047-0.66,0.118-0.801,0.2
			c-0.143,0.071-0.248,0.284-0.248,2.608v1.723c0,2.324,0.105,2.525,0.248,2.607c0.141,0.083,0.343,0.154,0.801,0.201
			c0.061,0.012,0.061,0.154,0.014,0.154C71.909,40.634,71.142,40.634,70.033,40.634z"/>
		<path fill="#666666" d="M79.383,40.434c-0.083,0.129-0.224,0.213-0.518,0.213c-0.722,0-1.454-0.036-2.441-0.036
			c-0.757,0-1.136,0.012-1.971,0.024c-0.035,0-0.035-0.142,0.011-0.154c0.474-0.047,0.674-0.118,0.814-0.201
			c0.143-0.082,0.248-0.283,0.248-2.607V35.95c0-2.324-0.105-2.537-0.248-2.608c-0.141-0.083-0.341-0.153-0.814-0.2
			c-0.046-0.011-0.046-0.153-0.011-0.153c0.919,0.011,2.276,0.023,3.042,0.023c0.994,0,1.405-0.012,1.771-0.06
			c0.047,0,0.07,0.024,0.07,0.047c-0.037,0.413-0.057,0.874-0.141,1.511c0,0.047-0.154,0.036-0.154-0.035
			c0-0.307-0.037-0.567-0.201-0.744c-0.201-0.212-0.566-0.319-1.403-0.319c-0.462,0-0.897,0.011-1.014,0.024
			c-0.023,0.118-0.035,0.59-0.035,1.333v1.71h0.966c1.121,0,1.273-0.129,1.347-0.554c0.011-0.048,0.164-0.035,0.164,0
			c-0.024,0.649-0.061,1.038-0.061,1.71c0,0.036-0.165,0.036-0.165-0.012c0-0.224-0.057-0.459-0.176-0.565
			c-0.104-0.106-0.294-0.189-1.123-0.189h-0.952v0.802c0,1.51,0.104,2.159,0.257,2.312c0.143,0.154,0.391,0.224,1.087,0.224
			c0.731,0,1.144-0.142,1.356-0.366c0.164-0.188,0.283-0.448,0.379-0.813c0.01-0.072,0.164-0.024,0.15,0.034
			C79.574,39.69,79.478,40.269,79.383,40.434z"/>
		<path fill="#666666" d="M91.042,40.15c-0.166,0.225-0.884,0.555-2.291,0.555c-2.607,0-4.137-1.664-4.137-3.799
			c0-2.018,1.485-3.988,4.113-3.988c1.334,0,1.959,0.448,2.383,0.366c0.049-0.012,0.073,0.013,0.073,0.036
			c0.011,0.413,0.046,1.062,0.034,1.699c-0.011,0.059-0.163,0.047-0.163-0.012c-0.038-0.319-0.214-0.72-0.462-0.956
			c-0.412-0.413-1.192-0.754-1.993-0.754c-2.136,0-3.011,1.592-3.011,3.268c0,1.923,1.299,3.716,3.188,3.716
			c0.861,0,1.498-0.224,1.898-0.708c0.248-0.318,0.4-0.672,0.497-1.025c0.012-0.06,0.166-0.012,0.166,0.035
			C91.288,39.206,91.148,39.985,91.042,40.15z"/>
		<path fill="#666666" d="M97.944,40.634c-0.047,0-0.047-0.142,0.012-0.154c0.462-0.047,0.661-0.118,0.803-0.201
			c0.142-0.082,0.246-0.283,0.246-2.607v-0.731h-4.458v0.731c0,2.324,0.105,2.525,0.249,2.607c0.139,0.083,0.34,0.154,0.801,0.201
			c0.059,0.012,0.059,0.154,0.024,0.154c-1.133,0-1.889,0-2.995,0c-0.037,0-0.051-0.142,0.01-0.154
			c0.459-0.047,0.66-0.118,0.803-0.201c0.15-0.082,0.246-0.283,0.246-2.607V35.95c0-2.324-0.096-2.537-0.246-2.608
			c-0.143-0.083-0.344-0.153-0.803-0.2c-0.061-0.011-0.047-0.153-0.01-0.153c1.084,0,1.838,0,2.995,0
			c0.034,0,0.034,0.142-0.024,0.153c-0.461,0.047-0.662,0.118-0.801,0.2c-0.144,0.071-0.249,0.284-0.249,2.608v0.554h4.458V35.95
			c0-2.324-0.104-2.537-0.246-2.608c-0.142-0.083-0.341-0.153-0.803-0.2c-0.059-0.011-0.059-0.153-0.012-0.153
			c1.086,0,1.854,0,2.984,0c0.049,0,0.049,0.142-0.01,0.153c-0.463,0.047-0.662,0.118-0.805,0.2
			c-0.141,0.071-0.245,0.284-0.245,2.608v1.723c0,2.324,0.104,2.525,0.245,2.607c0.143,0.083,0.342,0.154,0.805,0.201
			c0.059,0.012,0.059,0.154,0.01,0.154C99.82,40.634,99.055,40.634,97.944,40.634z"/>
		<path fill="#666666" d="M109.522,33.366c-0.104,0.095-0.21,0.271-0.21,2.584v1.982c0,1.416-1.12,2.772-2.974,2.772
			c-1.838,0-3.033-1.215-3.033-2.749V35.95c0-2.324-0.094-2.537-0.246-2.608c-0.143-0.083-0.342-0.153-0.803-0.2
			c-0.047-0.011-0.047-0.153-0.014-0.153c1.1,0,1.937,0,3.059,0c0.033,0,0.033,0.142-0.014,0.153
			c-0.461,0.047-0.719,0.118-0.863,0.2c-0.139,0.071-0.245,0.284-0.245,2.608v1.699c0,1.463,0.956,2.501,2.431,2.501
			c1.451,0,2.171-1.062,2.171-2.371V35.95c0-2.312-0.106-2.489-0.213-2.584c-0.13-0.106-0.398-0.177-0.871-0.224
			c-0.048-0.011-0.038-0.153,0-0.153c1.13,0,1.532,0,2.641,0c0.038,0,0.06,0.142,0,0.153
			C109.876,33.189,109.642,33.26,109.522,33.366z"/>
		<path fill="#666666" d="M118.701,40.61c-0.72,0-1.118-0.094-1.581-0.401c-0.602-0.412-1.237-1.228-2.193-2.854
			c-0.579,0.023-0.942,0.011-1.394-0.013v0.331c0,2.324,0.106,2.525,0.249,2.607c0.155,0.095,0.51,0.154,1.025,0.201
			c0.047,0.012,0.047,0.154,0.013,0.154c-1.11,0-2.101,0-3.21,0c-0.035,0-0.046-0.142,0.016-0.154
			c0.457-0.047,0.656-0.118,0.799-0.201c0.156-0.082,0.248-0.283,0.248-2.607V35.95c0-2.324-0.092-2.537-0.248-2.608
			c-0.143-0.083-0.342-0.153-0.799-0.2c-0.062-0.011-0.051-0.153-0.016-0.153c0.521,0,1.062,0.023,1.498,0.023
			s0.908-0.023,1.428-0.023c1.77,0,2.584,0.979,2.584,1.875c0,0.944-0.59,1.699-1.416,2.207c1.57,2.359,2.561,3.315,3.385,3.315
			c0.108,0,0.262,0,0.344-0.011c0.048,0,0.048,0.166,0.023,0.177C119.21,40.599,118.984,40.61,118.701,40.61z M114.524,33.355
			c-0.398,0-0.753,0.083-0.814,0.153c-0.07,0.095-0.177,0.732-0.177,2.442c0,0.708,0.038,0.791,0.095,0.861
			c0.129,0.118,0.461,0.189,1.014,0.189c0.968,0,1.489-0.767,1.489-1.688C116.131,34.181,115.646,33.355,114.524,33.355z"/>
		<path fill="#666666" d="M125.638,40.15c-0.166,0.225-0.884,0.555-2.29,0.555c-2.605,0-4.138-1.664-4.138-3.799
			c0-2.018,1.484-3.988,4.115-3.988c1.332,0,1.96,0.448,2.385,0.366c0.045-0.012,0.068,0.013,0.068,0.036
			c0.014,0.413,0.045,1.062,0.035,1.699c-0.012,0.059-0.164,0.047-0.164-0.012c-0.035-0.319-0.214-0.72-0.461-0.956
			c-0.412-0.413-1.189-0.754-1.994-0.754c-2.135,0-3.01,1.592-3.01,3.268c0,1.923,1.3,3.716,3.188,3.716
			c0.86,0,1.499-0.224,1.898-0.708c0.248-0.318,0.402-0.672,0.497-1.025c0.011-0.06,0.164-0.012,0.164,0.035
			C125.884,39.206,125.743,39.985,125.638,40.15z"/>
		<path fill="#666666" d="M132.54,40.634c-0.047,0-0.047-0.142,0.014-0.154c0.459-0.047,0.658-0.118,0.801-0.201
			c0.145-0.082,0.249-0.283,0.249-2.607v-0.731h-4.462v0.731c0,2.324,0.109,2.525,0.248,2.607c0.141,0.083,0.343,0.154,0.803,0.201
			c0.059,0.012,0.059,0.154,0.023,0.154c-1.131,0-1.885,0-2.996,0c-0.035,0-0.047-0.142,0.013-0.154
			c0.46-0.047,0.661-0.118,0.801-0.201c0.154-0.082,0.248-0.283,0.248-2.607V35.95c0-2.324-0.094-2.537-0.248-2.608
			c-0.14-0.083-0.341-0.153-0.801-0.2c-0.06-0.011-0.048-0.153-0.013-0.153c1.086,0,1.84,0,2.996,0c0.035,0,0.035,0.142-0.023,0.153
			c-0.46,0.047-0.662,0.118-0.803,0.2c-0.139,0.071-0.248,0.284-0.248,2.608v0.554h4.462V35.95c0-2.324-0.104-2.537-0.249-2.608
			c-0.143-0.083-0.342-0.153-0.801-0.2c-0.061-0.011-0.061-0.153-0.014-0.153c1.086,0,1.854,0,2.986,0
			c0.048,0,0.048,0.142-0.011,0.153c-0.461,0.047-0.663,0.118-0.804,0.2c-0.143,0.071-0.248,0.284-0.248,2.608v1.723
			c0,2.324,0.105,2.525,0.248,2.607c0.141,0.083,0.343,0.154,0.804,0.201c0.059,0.012,0.059,0.154,0.011,0.154
			C134.418,40.634,133.649,40.634,132.54,40.634z"/>
		<path fill="#666666" d="M144.446,40.705c-2.24,0-3.846-1.664-3.846-3.799c0-2.029,1.605-3.988,4.013-3.988
			c2.249,0,3.843,1.663,3.843,3.799C148.456,38.747,146.862,40.705,144.446,40.705z M144.389,33.355
			c-2.114,0-2.808,1.687-2.808,3.209c0,1.923,1.215,3.705,3.103,3.705c2.098,0,2.794-1.688,2.794-3.209
			C147.478,35.136,146.274,33.355,144.389,33.355z"/>
		<path fill="#666666" d="M154.425,34.511c0,0.047-0.151,0.036-0.151-0.035c0-0.307-0.073-0.555-0.248-0.744
			c-0.19-0.212-0.614-0.319-1.451-0.319c-0.461,0-0.989,0.011-1.107,0.024c-0.038,0.118-0.049,0.59-0.049,1.333v1.805h0.92
			c1.122,0,1.275-0.13,1.346-0.542c0.011-0.047,0.164-0.047,0.164-0.012c-0.022,0.648-0.034,1.039-0.056,1.71
			c0,0.036-0.166,0.036-0.166-0.011c0-0.213-0.051-0.461-0.166-0.567c-0.109-0.106-0.295-0.189-1.135-0.189h-0.907v0.708
			c0,2.324,0.104,2.525,0.249,2.607c0.152,0.095,0.505,0.154,1.023,0.201c0.048,0.012,0.048,0.154,0.014,0.154
			c-1.098,0-2.09,0-3.211,0c-0.033,0-0.033-0.142,0.012-0.154c0.462-0.047,0.662-0.118,0.804-0.201
			c0.154-0.082,0.248-0.283,0.248-2.607V35.95c0-2.324-0.094-2.537-0.248-2.608c-0.142-0.083-0.342-0.153-0.804-0.2
			c-0.045-0.011-0.045-0.153-0.012-0.153c0.922,0.011,2.326,0.023,3.093,0.023c0.979,0,1.545-0.012,1.913-0.06
			c0.045,0,0.069,0.024,0.069,0.047C154.533,33.414,154.509,33.874,154.425,34.511z"/>
	</g>
	<g>
		<path fill="#666666" d="M40.3,47.109c-0.854,0.088-1.4,0.219-1.664,0.372c-0.285,0.132-0.523,0.525-0.459,4.838l0.064,6.172
			c0.044,4.138-0.502,5.275-4.289,7.048c-0.064,0.045-0.24-0.174-0.153-0.24c1.927-1.4,2.78-1.838,2.78-6.808v-6.172
			c0-4.312-0.196-4.706-0.459-4.838c-0.266-0.153-0.832-0.284-1.686-0.372c-0.09-0.022-0.09-0.284-0.023-0.284
			c2.06,0,3.854,0,5.91,0C40.411,46.825,40.411,47.087,40.3,47.109z"/>
		<path fill="#666666" d="M51.835,60.637c-0.155,0.241-0.42,0.394-0.964,0.394c-1.335,0-2.694-0.066-4.532-0.066
			c-1.4,0-2.1,0.022-3.655,0.044c-0.066,0-0.066-0.263,0.021-0.285c0.875-0.087,1.248-0.219,1.511-0.373
			c0.263-0.153,0.458-0.525,0.458-4.836v-3.196c0-4.312-0.195-4.706-0.458-4.838c-0.263-0.153-0.636-0.284-1.511-0.372
			c-0.087-0.022-0.087-0.284-0.021-0.284c1.706,0.021,4.224,0.044,5.647,0.044c1.839,0,2.606-0.022,3.283-0.109
			c0.088,0,0.132,0.043,0.132,0.087c-0.066,0.767-0.11,1.62-0.265,2.802c0,0.087-0.283,0.065-0.283-0.065
			c0-0.569-0.067-1.051-0.371-1.379c-0.374-0.394-1.053-0.591-2.606-0.591c-0.853,0-1.663,0.021-1.882,0.044
			c-0.045,0.218-0.065,1.094-0.065,2.473v3.174h1.796c2.079,0,2.363-0.24,2.495-1.029c0.021-0.087,0.307-0.066,0.307,0
			c-0.044,1.205-0.112,1.926-0.112,3.174c0,0.066-0.306,0.066-0.306-0.022c0-0.415-0.108-0.853-0.329-1.05
			c-0.195-0.197-0.547-0.35-2.077-0.35h-1.773v1.489c0,2.801,0.197,4.005,0.481,4.29c0.262,0.284,0.721,0.415,2.014,0.415
			c1.355,0,2.121-0.263,2.518-0.678c0.307-0.35,0.523-0.832,0.699-1.51c0.022-0.132,0.307-0.045,0.285,0.065
			C52.185,59.258,52.008,60.331,51.835,60.637z"/>
		<path fill="#666666" d="M58.261,61.118c-2.057,0-3.35-1.05-3.416-1.312c-0.152-0.723-0.152-1.883-0.043-3
			c0-0.109,0.307-0.109,0.307,0.022c0.067,0.832,0.352,1.598,0.678,2.058c0.592,0.832,1.488,1.489,2.758,1.489
			c1.73,0,2.652-1.182,2.652-2.649c0-3.262-5.825-3.809-5.825-7.421c0-2.254,1.903-3.655,3.921-3.655
			c1.66,0,1.989,0.591,2.779,0.394c0.087-0.022,0.131,0.021,0.131,0.065c0,0.766,0.041,1.795,0,2.955
			c-0.021,0.088-0.309,0.088-0.309-0.022c-0.062-0.701-0.372-1.445-0.809-1.882c-0.481-0.503-1.139-0.81-1.947-0.81
			c-1.381,0-2.301,0.854-2.301,2.21c0,2.736,6.043,3.874,6.043,7.443C62.88,59.74,60.472,61.118,58.261,61.118z"/>
		<path fill="#666666" d="M78.327,47.526c-0.196,0.174-0.393,0.502-0.393,4.793v3.677c0,2.626-2.08,5.144-5.517,5.144
			c-3.415,0-5.626-2.254-5.626-5.1v-3.721c0-4.312-0.174-4.706-0.457-4.838c-0.264-0.153-0.638-0.284-1.49-0.372
			c-0.088-0.022-0.088-0.284-0.021-0.284c2.037,0,3.588,0,5.668,0c0.066,0,0.066,0.262-0.021,0.284
			c-0.854,0.088-1.336,0.219-1.599,0.372c-0.262,0.132-0.461,0.525-0.461,4.838v3.152c0,2.714,1.775,4.64,4.51,4.64
			c2.693,0,4.028-1.969,4.028-4.399v-3.393c0-4.291-0.196-4.619-0.396-4.793c-0.24-0.198-0.741-0.329-1.619-0.417
			c-0.086-0.022-0.065-0.284,0-0.284c2.103,0,2.847,0,4.902,0c0.068,0,0.112,0.262,0,0.284
			C78.985,47.197,78.547,47.328,78.327,47.526z"/>
		<path fill="#666666" d="M84.86,61.118c-2.059,0-3.352-1.05-3.416-1.312c-0.152-0.723-0.152-1.883-0.044-3
			c0-0.109,0.307-0.109,0.307,0.022c0.065,0.832,0.351,1.598,0.677,2.058c0.592,0.832,1.492,1.489,2.76,1.489
			c1.729,0,2.648-1.182,2.648-2.649c0-3.262-5.822-3.809-5.822-7.421c0-2.254,1.906-3.655,3.92-3.655
			c1.661,0,1.99,0.591,2.777,0.394c0.088-0.022,0.133,0.021,0.133,0.065c0,0.766,0.041,1.795,0,2.955
			c-0.021,0.088-0.307,0.088-0.307-0.022c-0.066-0.701-0.373-1.445-0.81-1.882c-0.483-0.503-1.14-0.81-1.948-0.81
			c-1.381,0-2.298,0.854-2.298,2.21c0,2.736,6.04,3.874,6.04,7.443C89.478,59.74,87.071,61.118,84.86,61.118z"/>
		<path fill="#666666" d="M110.883,60.111c-0.308,0.416-1.64,1.029-4.245,1.029c-4.836,0-7.682-3.086-7.682-7.048
			c0-3.743,2.756-7.398,7.637-7.398c2.476,0,3.635,0.833,4.42,0.678c0.088-0.021,0.136,0.022,0.136,0.066
			c0.021,0.767,0.084,1.971,0.063,3.152c-0.02,0.109-0.307,0.087-0.307-0.021c-0.065-0.592-0.395-1.336-0.854-1.773
			c-0.766-0.767-2.211-1.401-3.699-1.401c-3.963,0-5.581,2.955-5.581,6.063c0,3.568,2.409,6.895,5.909,6.895
			c1.598,0,2.779-0.416,3.525-1.313c0.461-0.591,0.743-1.248,0.92-1.905c0.022-0.109,0.306-0.021,0.306,0.066
			C111.343,58.36,111.083,59.806,110.883,60.111z"/>
		<path fill="#666666" d="M123.601,61.009c-0.088,0-0.088-0.263,0.023-0.285c0.852-0.087,1.225-0.219,1.486-0.373
			c0.266-0.153,0.461-0.525,0.461-4.836v-1.358h-8.275v1.358c0,4.312,0.197,4.684,0.461,4.836c0.262,0.153,0.633,0.285,1.489,0.373
			c0.108,0.022,0.108,0.285,0.042,0.285c-2.101,0-3.502,0-5.559,0c-0.066,0-0.09-0.263,0.021-0.285
			c0.853-0.087,1.225-0.219,1.488-0.373c0.283-0.153,0.459-0.525,0.459-4.836v-3.196c0-4.312-0.176-4.706-0.459-4.838
			c-0.264-0.153-0.636-0.284-1.488-0.372c-0.111-0.022-0.088-0.284-0.021-0.284c2.014,0,3.412,0,5.559,0
			c0.066,0,0.066,0.262-0.042,0.284c-0.856,0.088-1.228,0.219-1.489,0.372c-0.264,0.132-0.461,0.525-0.461,4.838v1.029h8.275v-1.029
			c0-4.312-0.195-4.706-0.461-4.838c-0.262-0.153-0.635-0.284-1.486-0.372c-0.111-0.022-0.111-0.284-0.023-0.284
			c2.014,0,3.437,0,5.537,0c0.088,0,0.088,0.262-0.021,0.284c-0.854,0.088-1.228,0.219-1.489,0.372
			c-0.263,0.132-0.458,0.525-0.458,4.838v3.196c0,4.312,0.195,4.684,0.458,4.836c0.262,0.153,0.636,0.285,1.489,0.373
			c0.108,0.022,0.108,0.285,0.021,0.285C127.083,61.009,125.657,61.009,123.601,61.009z"/>
		<path fill="#666666" d="M144.89,60.965c-1.338,0-2.08-0.175-2.934-0.744c-1.115-0.766-2.299-2.276-4.072-5.298
			c-1.071,0.044-1.749,0.023-2.581-0.021v0.614c0,4.312,0.198,4.684,0.458,4.836c0.283,0.175,0.941,0.285,1.906,0.373
			c0.086,0.022,0.086,0.285,0.02,0.285c-2.056,0-3.895,0-5.953,0c-0.064,0-0.088-0.263,0.021-0.285
			c0.854-0.087,1.227-0.219,1.488-0.373c0.286-0.153,0.461-0.525,0.461-4.836v-3.196c0-4.312-0.175-4.706-0.461-4.838
			c-0.262-0.153-0.634-0.284-1.488-0.372c-0.109-0.022-0.086-0.284-0.021-0.284c0.964,0,1.971,0.044,2.779,0.044
			c0.811,0,1.686-0.044,2.65-0.044c3.281,0,4.793,1.816,4.793,3.479c0,1.752-1.096,3.153-2.625,4.094
			c2.908,4.378,4.75,6.151,6.282,6.151c0.194,0,0.479,0,0.636-0.022c0.086,0,0.086,0.307,0.043,0.329
			C145.833,60.943,145.417,60.965,144.89,60.965z M137.141,47.503c-0.743,0-1.401,0.154-1.51,0.285
			c-0.13,0.175-0.328,1.357-0.328,4.531c0,1.313,0.065,1.466,0.175,1.598c0.24,0.219,0.854,0.351,1.881,0.351
			c1.796,0,2.759-1.423,2.759-3.13C140.117,49.035,139.22,47.503,137.141,47.503z"/>
		<path fill="#666666" d="M146.05,61.009c-0.068,0-0.068-0.263,0.02-0.285c0.854-0.087,1.424-0.219,1.686-0.373
			c0.265-0.153,0.461-0.525,0.461-4.836v-3.196c0-4.312-0.196-4.706-0.461-4.838c-0.262-0.153-0.832-0.284-1.686-0.372
			c-0.088-0.022-0.088-0.284-0.02-0.284c2.035,0,3.83,0,5.91,0c0.065,0,0.084,0.262-0.022,0.284
			c-0.853,0.088-1.401,0.219-1.663,0.372c-0.286,0.132-0.482,0.525-0.482,4.838v3.196c0,4.312,0.196,4.684,0.482,4.836
			c0.262,0.153,0.811,0.285,1.663,0.373c0.106,0.022,0.088,0.285,0.022,0.285C149.923,61.009,148.126,61.009,146.05,61.009z"/>
		<path fill="#666666" d="M157.673,61.118c-2.059,0-3.35-1.05-3.416-1.312c-0.154-0.723-0.154-1.883-0.045-3
			c0-0.109,0.307-0.109,0.307,0.022c0.067,0.832,0.351,1.598,0.68,2.058c0.59,0.832,1.488,1.489,2.758,1.489
			c1.729,0,2.648-1.182,2.648-2.649c0-3.262-5.823-3.809-5.823-7.421c0-2.254,1.905-3.655,3.92-3.655
			c1.664,0,1.991,0.591,2.779,0.394c0.085-0.022,0.133,0.021,0.133,0.065c0,0.766,0.042,1.795,0,2.955
			c-0.024,0.088-0.309,0.088-0.309-0.022c-0.065-0.701-0.372-1.445-0.812-1.882c-0.48-0.503-1.137-0.81-1.945-0.81
			c-1.378,0-2.297,0.854-2.297,2.21c0,2.736,6.041,3.874,6.041,7.443C162.292,59.74,159.883,61.118,157.673,61.118z"/>
		<path fill="#666666" d="M177.142,49.867c0,0.066-0.305,0.066-0.305-0.044c0-0.546-0.111-1.138-0.396-1.444
			c-0.415-0.416-1.442-0.722-3.786-0.722c-0.482,0-0.766,0.021-0.986,0.043c-0.064,0.22-0.084,1.095-0.084,2.474v5.342
			c0,4.312,0.193,4.684,0.459,4.836c0.283,0.153,0.832,0.285,1.682,0.373c0.091,0.022,0.091,0.285,0.025,0.285
			c-2.039,0-3.832,0-5.91,0c-0.066,0-0.066-0.263,0.02-0.285c0.855-0.087,1.403-0.219,1.687-0.373
			c0.263-0.153,0.461-0.525,0.461-4.836v-5.342c0-1.378-0.022-2.254-0.089-2.474c-0.219-0.022-0.613-0.043-1.094-0.043
			c-2.254,0-3.264,0.24-3.809,0.722c-0.35,0.307-0.57,0.963-0.658,1.488c-0.02,0.109-0.304,0.044-0.304-0.044
			c0.13-1.116,0.262-2.32,0.304-3.063c0-0.044,0.066-0.088,0.154-0.088c0.766,0.131,2.476,0.241,6.281,0.241
			c5.232,0,6.02-0.153,6.394-0.284c0.108-0.022,0.13,0.043,0.13,0.087C177.317,47.547,177.274,48.729,177.142,49.867z"/>
	</g>
	<g>
		<g>
			<path fill="#666666" d="M42.208,75.542c-2.242,0-3.846-1.664-3.846-3.801c0-2.029,1.604-3.986,4.01-3.986
				c2.254,0,3.846,1.662,3.846,3.799C46.218,73.583,44.626,75.542,42.208,75.542z M42.148,68.19c-2.111,0-2.808,1.688-2.808,3.209
				c0,1.924,1.216,3.705,3.104,3.705c2.098,0,2.795-1.686,2.795-3.209C45.239,69.971,44.037,68.19,42.148,68.19z"/>
			<path fill="#666666" d="M52.187,69.346c0,0.047-0.152,0.035-0.152-0.035c0-0.307-0.071-0.555-0.248-0.742
				c-0.189-0.213-0.614-0.32-1.451-0.32c-0.459,0-0.992,0.014-1.109,0.023c-0.035,0.119-0.049,0.592-0.049,1.334v1.805h0.922
				c1.122,0,1.273-0.129,1.346-0.543c0.012-0.047,0.166-0.047,0.166-0.01c-0.024,0.648-0.036,1.037-0.06,1.711
				c0,0.033-0.165,0.033-0.165-0.014c0-0.213-0.048-0.459-0.165-0.566c-0.106-0.105-0.296-0.189-1.133-0.189h-0.911v0.709
				c0,2.324,0.108,2.525,0.248,2.607c0.154,0.094,0.508,0.154,1.028,0.201c0.046,0.012,0.046,0.152,0.013,0.152
				c-1.098,0-2.09,0-3.21,0c-0.034,0-0.034-0.141,0.011-0.152c0.459-0.047,0.66-0.119,0.803-0.201
				c0.154-0.082,0.247-0.283,0.247-2.607v-1.723c0-2.324-0.093-2.537-0.247-2.607c-0.143-0.082-0.344-0.154-0.803-0.199
				c-0.045-0.014-0.045-0.154-0.011-0.154c0.92,0.012,2.323,0.023,3.089,0.023c0.98,0,1.548-0.012,1.912-0.059
				c0.049,0,0.074,0.023,0.074,0.047C52.294,68.249,52.271,68.709,52.187,69.346z"/>
			<path fill="#666666" d="M62.36,75.27c-0.074,0.129-0.215,0.211-0.509,0.211c-0.721,0-1.451-0.033-2.444-0.033
				c-0.766,0-1.225,0.01-2.064,0.021c-0.034,0-0.034-0.141,0.014-0.152c0.457-0.047,0.66-0.119,0.799-0.201
				c0.154-0.082,0.251-0.283,0.251-2.607v-1.723c0-2.324-0.097-2.537-0.251-2.607c-0.139-0.082-0.342-0.154-0.799-0.199
				c-0.048-0.014-0.048-0.154-0.014-0.154c1.099,0,1.878,0,2.996,0c0.037,0,0.037,0.141-0.008,0.154
				c-0.462,0.045-0.676,0.117-0.815,0.199c-0.144,0.07-0.249,0.283-0.249,2.607v1.723c0,1.51,0.105,2.16,0.26,2.312
				c0.143,0.154,0.389,0.225,1.086,0.225c0.742,0,1.204-0.166,1.416-0.389c0.178-0.189,0.377-0.627,0.471-1.004
				c0.012-0.07,0.168-0.012,0.154,0.035C62.604,74.313,62.464,75.104,62.36,75.27z"/>
			<path fill="#666666" d="M68.468,75.469c-0.035,0-0.047-0.141,0-0.152c0.367-0.035,0.59-0.107,0.59-0.283
				c0-0.201-0.152-0.732-0.828-2.432h-2.441c-0.553,1.523-0.683,2.102-0.683,2.35c0,0.213,0.163,0.318,0.671,0.365
				c0.049,0.012,0.037,0.152,0,0.152c-0.766,0-1.391,0-2.416,0c-0.037,0-0.062-0.141,0-0.152c0.352-0.035,0.564-0.107,0.742-0.225
				c0.118-0.094,0.33-0.26,1.179-2.584l0.626-1.723c0.363-0.99,0.754-2.018,1.053-2.938c0.021-0.082,0.375-0.082,0.398,0
				c0.354,1.025,0.661,1.863,1.074,2.938l0.673,1.723c0.92,2.324,1.071,2.502,1.235,2.607c0.203,0.129,0.38,0.166,0.71,0.201
				c0.048,0.012,0.034,0.152,0,0.152C69.967,75.469,69.6,75.469,68.468,75.469z M67.005,69.276l-1.038,2.844h2.088L67.005,69.276z"
				/>
			<path fill="#666666" d="M77.821,69.465c0,0.035-0.166,0.035-0.166-0.023c0-0.297-0.06-0.613-0.211-0.779
				c-0.227-0.225-0.781-0.391-2.044-0.391c-0.259,0-0.411,0.012-0.531,0.025c-0.034,0.117-0.047,0.59-0.047,1.332v2.879
				c0,2.324,0.106,2.525,0.249,2.607c0.152,0.082,0.447,0.154,0.906,0.201c0.048,0.012,0.048,0.152,0.014,0.152
				c-1.098,0-2.066,0-3.186,0c-0.037,0-0.037-0.141,0.011-0.152c0.46-0.047,0.755-0.119,0.908-0.201
				c0.142-0.082,0.249-0.283,0.249-2.607v-2.879c0-0.742-0.014-1.215-0.049-1.332c-0.119-0.014-0.329-0.025-0.59-0.025
				c-1.215,0-1.758,0.131-2.053,0.391c-0.189,0.166-0.307,0.52-0.354,0.803c-0.012,0.059-0.165,0.021-0.165-0.023
				c0.071-0.602,0.142-1.252,0.165-1.652c0-0.023,0.034-0.047,0.082-0.047c0.414,0.07,1.334,0.129,3.387,0.129
				c2.82,0,3.244-0.082,3.445-0.152c0.058-0.012,0.072,0.023,0.072,0.047C77.915,68.213,77.89,68.852,77.821,69.465z"/>
			<path fill="#666666" d="M85.909,69.465c0,0.035-0.166,0.035-0.166-0.023c0-0.297-0.059-0.613-0.21-0.779
				c-0.228-0.225-0.779-0.391-2.042-0.391c-0.259,0-0.414,0.012-0.531,0.025c-0.035,0.117-0.045,0.59-0.045,1.332v2.879
				c0,2.324,0.104,2.525,0.244,2.607c0.154,0.082,0.451,0.154,0.912,0.201c0.046,0.012,0.046,0.152,0.01,0.152
				c-1.098,0-2.064,0-3.188,0c-0.033,0-0.033-0.141,0.014-0.152c0.461-0.047,0.756-0.119,0.906-0.201
				c0.143-0.082,0.248-0.283,0.248-2.607v-2.879c0-0.742-0.01-1.215-0.045-1.332c-0.119-0.014-0.332-0.025-0.59-0.025
				c-1.215,0-1.76,0.131-2.051,0.391c-0.191,0.166-0.311,0.52-0.356,0.803c-0.012,0.059-0.165,0.021-0.165-0.023
				c0.07-0.602,0.141-1.252,0.165-1.652c0-0.023,0.035-0.047,0.081-0.047c0.415,0.07,1.335,0.129,3.389,0.129
				c2.816,0,3.246-0.082,3.445-0.152c0.057-0.012,0.068,0.023,0.068,0.047C86.003,68.213,85.98,68.852,85.909,69.465z"/>
			<path fill="#666666" d="M92.135,75.27c-0.084,0.129-0.224,0.211-0.521,0.211c-0.718,0-1.449-0.033-2.441-0.033
				c-0.755,0-1.133,0.01-1.971,0.021c-0.035,0-0.035-0.141,0.01-0.152c0.475-0.047,0.675-0.119,0.816-0.201s0.246-0.283,0.246-2.607
				v-1.723c0-2.324-0.104-2.537-0.246-2.607c-0.142-0.082-0.342-0.154-0.816-0.199c-0.045-0.014-0.045-0.154-0.01-0.154
				c0.922,0.012,2.278,0.023,3.047,0.023c0.987,0,1.4-0.012,1.767-0.059c0.049,0,0.069,0.023,0.069,0.047
				c-0.034,0.412-0.059,0.873-0.141,1.51c0,0.047-0.152,0.035-0.152-0.035c0-0.307-0.035-0.566-0.2-0.742
				c-0.202-0.213-0.566-0.32-1.404-0.32c-0.462,0-0.896,0.014-1.015,0.023c-0.023,0.119-0.037,0.592-0.037,1.334v1.711h0.97
				c1.118,0,1.272-0.129,1.345-0.555c0.013-0.047,0.164-0.035,0.164,0c-0.022,0.648-0.058,1.037-0.058,1.711
				c0,0.035-0.167,0.035-0.167-0.012c0-0.225-0.057-0.461-0.178-0.566c-0.105-0.107-0.295-0.189-1.119-0.189h-0.957v0.803
				c0,1.51,0.107,2.16,0.261,2.312c0.144,0.154,0.388,0.225,1.087,0.225c0.729,0,1.145-0.141,1.356-0.365
				c0.163-0.189,0.284-0.449,0.376-0.814c0.014-0.072,0.164-0.023,0.155,0.035C92.321,74.526,92.229,75.104,92.135,75.27z"/>
			<path fill="#666666" d="M100.733,75.448c-0.718,0-1.119-0.096-1.579-0.402c-0.603-0.412-1.237-1.227-2.194-2.855
				c-0.58,0.023-0.944,0.012-1.392-0.012v0.33c0,2.324,0.104,2.525,0.245,2.607c0.156,0.094,0.508,0.154,1.027,0.201
				c0.047,0.012,0.047,0.152,0.014,0.152c-1.111,0-2.101,0-3.211,0c-0.034,0-0.047-0.141,0.012-0.152
				c0.459-0.047,0.661-0.119,0.805-0.201c0.15-0.082,0.247-0.283,0.247-2.607v-1.723c0-2.324-0.097-2.537-0.247-2.607
				c-0.144-0.082-0.346-0.154-0.805-0.199c-0.059-0.014-0.046-0.154-0.012-0.154c0.521,0,1.063,0.023,1.498,0.023
				c0.439,0,0.91-0.023,1.43-0.023c1.768,0,2.583,0.98,2.583,1.875c0,0.945-0.59,1.699-1.416,2.207
				c1.57,2.359,2.561,3.316,3.388,3.316c0.104,0,0.257,0,0.341-0.014c0.046,0,0.046,0.166,0.026,0.178
				C101.243,75.434,101.02,75.448,100.733,75.448z M96.558,68.19c-0.402,0-0.756,0.082-0.814,0.154
				c-0.07,0.094-0.175,0.732-0.175,2.441c0,0.709,0.035,0.789,0.091,0.861c0.133,0.117,0.465,0.189,1.016,0.189
				c0.969,0,1.49-0.768,1.49-1.688C98.165,69.018,97.68,68.19,96.558,68.19z"/>
			<path fill="#666666" d="M104.441,71.764c-0.05,0.061-0.12,0.084-0.271,0.084l-1.498,0.023c-1.617,0.012-1.831,0.141-1.972,0.438
				c-0.014,0.047-0.143-0.025-0.143-0.061c0.014-0.271,0.07-0.625,0.109-0.861l1.804-0.023c1.626-0.012,1.78-0.164,1.936-0.447
				c0.022-0.049,0.151,0.012,0.141,0.047C104.522,71.223,104.488,71.694,104.441,71.764z"/>
			<path fill="#666666" d="M111.973,74.301c-0.813,0.814-1.712,1.168-3.22,1.168c-0.521,0-1.359-0.021-1.793-0.021
				c-0.438,0-0.982,0.021-1.5,0.021c-0.035,0-0.045-0.141,0.012-0.152c0.46-0.047,0.66-0.119,0.803-0.201
				c0.15-0.082,0.247-0.283,0.247-2.607v-1.723c0-2.324-0.097-2.537-0.247-2.607c-0.143-0.082-0.343-0.154-0.803-0.199
				c-0.057-0.014-0.047-0.154-0.012-0.154c0.518,0,1.062,0.023,1.5,0.023c0.434,0,1.521-0.023,2.049-0.023
				c2.374,0,4.084,1.592,4.084,3.729C113.093,72.579,112.681,73.583,111.973,74.301z M108.644,68.213c-0.705,0-1,0.094-1.086,0.201
				c-0.068,0.094-0.174,0.613-0.174,2.336v1.758c0,1.51,0.105,2.1,0.26,2.266c0.211,0.225,0.482,0.307,1.096,0.307
				c2.312,0,3.375-1.098,3.375-3.316C112.114,69.959,110.9,68.213,108.644,68.213z"/>
			<path fill="#666666" d="M118.167,75.469c-0.036,0-0.047-0.141,0-0.152c0.366-0.035,0.588-0.107,0.588-0.283
				c0-0.201-0.151-0.732-0.823-2.432h-2.442c-0.557,1.523-0.685,2.102-0.685,2.35c0,0.213,0.165,0.318,0.673,0.365
				c0.045,0.012,0.033,0.152,0,0.152c-0.768,0-1.393,0-2.418,0c-0.037,0-0.059-0.141,0-0.152c0.352-0.035,0.566-0.107,0.74-0.225
				c0.117-0.094,0.331-0.26,1.181-2.584l0.626-1.723c0.366-0.99,0.754-2.018,1.049-2.938c0.024-0.082,0.378-0.082,0.404,0
				c0.352,1.025,0.659,1.863,1.071,2.938l0.674,1.723c0.917,2.324,1.071,2.502,1.237,2.607c0.201,0.129,0.377,0.166,0.709,0.201
				c0.045,0.012,0.033,0.152,0,0.152C119.667,75.469,119.299,75.469,118.167,75.469z M116.702,69.276l-1.035,2.844h2.087
				L116.702,69.276z"/>
			<path fill="#666666" d="M127.21,68.108c-0.121,0.059-0.334,0.154-1.193,1.58l-0.637,1.051c-0.283,0.461-0.566,0.92-0.826,1.369
				v0.389c0,2.336,0.105,2.537,0.248,2.619c0.154,0.082,0.449,0.154,0.908,0.201c0.059,0.012,0.047,0.152,0.012,0.152
				c-1.107,0-2.064,0-3.197,0c-0.035,0-0.035-0.141,0.012-0.152c0.473-0.047,0.769-0.119,0.91-0.201s0.246-0.283,0.246-2.619v-0.342
				c-0.26-0.461-0.52-0.896-0.838-1.416l-0.66-1.051c-0.896-1.426-1.049-1.533-1.214-1.604c-0.202-0.07-0.367-0.105-0.71-0.119
				c-0.047,0-0.034-0.152,0-0.152c1.121,0,1.535,0,2.656,0c0.036,0,0.059,0.152,0,0.152c-0.271,0.014-0.46,0.049-0.555,0.107
				c-0.096,0.047-0.096,0.176,0.766,1.51l1.18,2.006l1.216-1.982c0.838-1.334,0.72-1.451,0.626-1.521
				c-0.094-0.047-0.307-0.094-0.626-0.119c-0.06,0-0.034-0.152,0-0.152c0.731,0,1.368,0,2.419,0c0.036,0,0.057,0.152,0,0.152
				C127.61,67.991,127.384,68.038,127.21,68.108z"/>
			<path fill="#666666" d="M134.276,75.53c-1.109,0-1.805-0.566-1.839-0.709c-0.085-0.389-0.085-1.014-0.026-1.615
				c0-0.061,0.164-0.061,0.164,0.012c0.039,0.447,0.192,0.861,0.367,1.107c0.318,0.449,0.805,0.803,1.486,0.803
				c0.934,0,1.43-0.637,1.43-1.428c0-1.758-3.14-2.053-3.14-4c0-1.215,1.028-1.971,2.114-1.971c0.893,0,1.071,0.32,1.498,0.213
				c0.045-0.012,0.069,0.014,0.069,0.037c0,0.412,0.024,0.967,0,1.592c-0.011,0.047-0.164,0.047-0.164-0.012
				c-0.036-0.377-0.203-0.779-0.438-1.016c-0.259-0.271-0.614-0.436-1.048-0.436c-0.746,0-1.242,0.461-1.242,1.191
				c0,1.475,3.259,2.088,3.259,4.012C136.768,74.786,135.468,75.53,134.276,75.53z"/>
			<path fill="#666666" d="M142.415,75.469c-0.035,0-0.047-0.141,0-0.152c0.363-0.035,0.59-0.107,0.59-0.283
				c0-0.201-0.153-0.732-0.825-2.432h-2.443c-0.556,1.523-0.685,2.102-0.685,2.35c0,0.213,0.164,0.318,0.674,0.365
				c0.047,0.012,0.035,0.152,0,0.152c-0.766,0-1.391,0-2.42,0c-0.035,0-0.057-0.141,0-0.152c0.354-0.035,0.566-0.107,0.744-0.225
				c0.117-0.094,0.33-0.26,1.178-2.584l0.627-1.723c0.367-0.99,0.755-2.018,1.05-2.938c0.022-0.082,0.378-0.082,0.401,0
				c0.354,1.025,0.661,1.863,1.074,2.938l0.672,1.723c0.921,2.324,1.074,2.502,1.236,2.607c0.203,0.129,0.379,0.166,0.713,0.201
				c0.046,0.012,0.032,0.152,0,0.152C143.915,75.469,143.548,75.469,142.415,75.469z M140.952,69.276l-1.037,2.844h2.087
				L140.952,69.276z"/>
			<path fill="#666666" d="M146.068,75.469c-0.035,0-0.035-0.141,0.013-0.152c0.459-0.047,0.767-0.119,0.907-0.201
				c0.143-0.082,0.248-0.283,0.248-2.607v-1.723c0-2.324-0.105-2.537-0.248-2.607c-0.141-0.082-0.448-0.154-0.907-0.199
				c-0.048-0.014-0.048-0.154-0.013-0.154c1.099,0,2.063,0,3.185,0c0.035,0,0.047,0.141-0.012,0.154
				c-0.46,0.045-0.756,0.117-0.896,0.199c-0.152,0.07-0.26,0.283-0.26,2.607v1.723c0,2.324,0.107,2.525,0.26,2.607
				c0.141,0.082,0.437,0.154,0.896,0.201c0.059,0.012,0.047,0.152,0.012,0.152C148.155,75.469,147.188,75.469,146.068,75.469z"/>
			<path fill="#666666" d="M158.386,68.202c-0.107,0.096-0.236,0.26-0.213,2.584l0.012,1.723c0,0.992,0,2.041,0.059,2.961
				c0,0.061-0.21,0.084-0.271,0.023l-5.814-6.076l0.048,3.092c0.02,2.148,0.162,2.477,0.327,2.607
				c0.106,0.07,0.531,0.189,0.85,0.201c0.06,0,0.036,0.152,0,0.152c-1.19,0-1.673,0-2.795,0c-0.036,0-0.062-0.141,0-0.152
				c0.459-0.047,0.743-0.119,0.872-0.225c0.094-0.094,0.224-0.26,0.201-2.584l-0.023-1.723c-0.012-0.99-0.012-2.041-0.07-2.961
				c-0.014-0.059,0.234-0.082,0.27-0.023l5.83,6.111l-0.049-3.127c-0.012-2.324-0.187-2.502-0.318-2.607
				c-0.142-0.105-0.438-0.164-0.92-0.199c-0.06-0.014-0.035-0.154,0-0.154c1.098,0,1.701,0,2.82,0c0.036,0,0.059,0.141,0,0.154
				C158.739,68.024,158.503,68.096,158.386,68.202z"/>
			<path fill="#666666" d="M167.296,69.465c0,0.035-0.165,0.035-0.165-0.023c0-0.297-0.06-0.613-0.214-0.779
				c-0.223-0.225-0.776-0.391-2.041-0.391c-0.259,0-0.412,0.012-0.531,0.025c-0.035,0.117-0.046,0.59-0.046,1.332v2.879
				c0,2.324,0.107,2.525,0.248,2.607c0.154,0.082,0.448,0.154,0.909,0.201c0.045,0.012,0.045,0.152,0.011,0.152
				c-1.099,0-2.065,0-3.186,0c-0.035,0-0.035-0.141,0.011-0.152c0.462-0.047,0.756-0.119,0.908-0.201
				c0.143-0.082,0.249-0.283,0.249-2.607v-2.879c0-0.742-0.012-1.215-0.048-1.332c-0.117-0.014-0.33-0.025-0.588-0.025
				c-1.217,0-1.759,0.131-2.055,0.391c-0.189,0.166-0.306,0.52-0.353,0.803c-0.013,0.059-0.167,0.021-0.167-0.023
				c0.07-0.602,0.141-1.252,0.167-1.652c0-0.023,0.035-0.047,0.082-0.047c0.413,0.07,1.332,0.129,3.388,0.129
				c2.818,0,3.242-0.082,3.441-0.152c0.059-0.012,0.072,0.023,0.072,0.047C167.39,68.213,167.365,68.852,167.296,69.465z"/>
			<path fill="#666666" d="M170.21,75.53c-1.109,0-1.804-0.566-1.839-0.709c-0.083-0.389-0.083-1.014-0.023-1.615
				c0-0.061,0.165-0.061,0.165,0.012c0.034,0.447,0.188,0.861,0.363,1.107c0.318,0.449,0.805,0.803,1.489,0.803
				c0.931,0,1.427-0.637,1.427-1.428c0-1.758-3.138-2.053-3.138-4c0-1.215,1.026-1.971,2.112-1.971c0.896,0,1.073,0.32,1.497,0.213
				c0.049-0.012,0.071,0.014,0.071,0.037c0,0.412,0.023,0.967,0,1.592c-0.012,0.047-0.165,0.047-0.165-0.012
				c-0.035-0.377-0.202-0.779-0.437-1.016c-0.26-0.271-0.613-0.436-1.05-0.436c-0.745,0-1.239,0.461-1.239,1.191
				c0,1.475,3.257,2.088,3.257,4.012C172.701,74.786,171.401,75.53,170.21,75.53z"/>
		</g>
	</g>
</g>
</svg>
