<?xml version="1.0" encoding="utf-8"?>
<!-- Generator: Adobe Illustrator 16.0.0, SVG Export Plug-In . SVG Version: 6.00 Build 0)  -->
<!DOCTYPE svg PUBLIC "-//W3C//DTD SVG 1.1//EN" "http://www.w3.org/Graphics/SVG/1.1/DTD/svg11.dtd">
<svg version="1.1" id="Layer_1" xmlns="http://www.w3.org/2000/svg" xmlns:xlink="http://www.w3.org/1999/xlink" x="0px" y="0px"
	 width="108.25px" height="26.75px" viewBox="0 0 108.25 26.75" enable-background="new 0 0 108.25 26.75" xml:space="preserve">
<g>
	<g>
		<path fill="#808080" d="M92.441,20.624l1.623-4.289l0.281,0.244c0.996,0.812,2.347,1.503,3.619,1.529
			c1.141,0.027,1.698-0.277,1.547-1.241c-0.113-0.72-0.925-0.846-1.433-0.947l-1.115-0.223c-2.168-0.405-3.991-1.743-3.991-4.277
			c0-3.832,3.304-5.98,6.625-5.98c1.747,0,3.344,0.444,4.847,1.419l-1.411,3.8c-0.771-0.557-1.939-1.339-3.42-1.392
			c-0.487-0.019-1.6,0.237-1.243,1.367c0.151,0.481,0.845,0.683,1.269,0.786l1.258,0.304c2.351,0.547,4.053,1.885,4.053,4.621
			c0,3.852-3.326,5.758-6.627,5.758C96.397,22.104,94.166,21.556,92.441,20.624"/>
		<rect x="85.686" y="5.704" fill="#808080" width="5.562" height="16.159"/>
		<polygon fill="#808080" points="79.309,5.704 85.104,5.704 79.184,21.863 74.484,21.863 68.584,5.704 74.359,5.704 76.834,15.454 
					"/>
		<path fill="#808080" d="M54.86,21.863h5.878l0.445-2.03h4.196l0.557,2.03h5.878L66.312,5.704h-6.165L54.86,21.863z M63.291,10.367
			L63.291,10.367C63.395,11.055,64.406,16,64.406,16h-2.223L63.291,10.367z"/>
		<path fill="#808080" d="M46.018,17.222h0.381c1.867,0,3.25-1.118,3.25-3.227c0-2.271-1.226-3.537-3.273-3.537h-0.357V17.222z
			 M40.427,5.704h5.692c5.172,0,9.123,2.374,9.123,8.312c0,4.784-3.221,7.847-7.744,7.847l-7.071-0.009V5.704z"/>
		<path fill="#808080" d="M37.039,6.21l0.303,2.651c0.07,0.63,0.431,2.141-0.012,1.938c-0.279-0.125-0.508-0.81-0.735-1.417
			c-0.116-0.309-0.669-1.769-0.812-1.876c-0.695-0.521-2.432-1.108-3.607-1.113c-3.562-0.014-5.92,2.614-5.92,7.277
			c0,3.345,1.604,7.358,5.678,7.358c1.457,0,4.256-0.46,5.016-2.536c0.342-0.94,0.656-1.775,0.885-1.522
			c0.17,0.186-0.049,0.938-0.15,1.343c-0.48,1.925-0.508,2.509-0.659,2.584c-1.841,0.923-4.199,1.228-6.269,1.228
			c-6.57,0-8.838-3.833-8.838-7.663c0-6.649,4.085-9.401,10.418-9.163C33.937,5.358,35.538,5.644,37.039,6.21"/>
		<path fill="#808080" d="M17.641,6.504l-1.053-0.367c-0.355-0.317,0.076-0.405,0.076-0.405s1.52,0.281,5.311-0.04
			c0,0,0.326,0.065,0.1,0.332l-1.242,0.532c-0.811,0.354-0.811,0.15-0.811,1.038l-0.006,8.235c0,6.439-6.553,6.294-7.83,6.294
			c-0.607,0-6.568,0-6.568-5.17V8.238c0-1.52,0.164-1.479-0.341-1.658L3.756,6.01c0,0-0.258-0.365,0.201-0.342
			c1.24,0.064,3.042,0.331,7.223,0.025c0,0,0.367,0.089,0.127,0.356l-1.219,0.354c-0.96,0.432-0.833,0.101-0.859,1.09l0.029,8.595
			c0,2.108,1.082,4.718,4.449,4.718c4.643,0,4.688-4.017,4.688-4.909l0.008-8.515C18.451,6.58,18.35,6.808,17.641,6.504"/>
	</g>
</g>
</svg>
