<?xml version="1.0" encoding="utf-8"?>
<!-- Generator: Adobe Illustrator 16.2.1, SVG Export Plug-In . SVG Version: 6.00 Build 0)  -->
<!DOCTYPE svg PUBLIC "-//W3C//DTD SVG 1.1//EN" "http://www.w3.org/Graphics/SVG/1.1/DTD/svg11.dtd">
<svg version="1.1" id="Layer_1" xmlns="http://www.w3.org/2000/svg" xmlns:xlink="http://www.w3.org/1999/xlink" x="0px" y="0px"
	 width="240px" height="60px" viewBox="0 0 240 60" enable-background="new 0 0 240 60" xml:space="preserve">
<g>
	<g>
		<g>
			<path fill="#808080" d="M64.338,39.947h-3.084c-0.332,0-6.729,0-6.729-6.666V21.378c0,0,0-1.327,1.327-1.327h1.527
				c0,0,1.322,0,1.322,1.327v11.67c0,2.587,2.488,2.587,2.553,2.587h3.117c0.067,0,2.551,0,2.551-2.587v-11.67
				c0-1.327,1.326-1.327,1.326-1.327h1.531c1.322,0,1.322,1.327,1.322,1.327v11.903C71.102,40.111,64.338,39.947,64.338,39.947z"/>
			<path fill="#808080" d="M88.015,39.947h-1.526c0,0-1.326,0-1.326-1.325V26.88c0-2.583-2.556-2.583-2.556-2.583h-3.115
				c0,0-2.55,0-2.55,2.583v11.742c0,1.325-1.328,1.325-1.328,1.325h-1.526c-1.326,0-1.326-1.325-1.326-1.325V26.717
				c0-6.831,6.766-6.666,6.766-6.666h3.081c0,0,6.73,0,6.73,6.666v11.905C89.337,38.622,89.337,39.947,88.015,39.947z"/>
			<path fill="#808080" d="M93.879,39.947h-1.557c-1.325,0-1.325-1.359-1.325-1.359V21.41c0,0,0-1.359,1.325-1.359h1.524
				c1.324,0,1.324,1.359,1.324,1.359v17.178C95.172,38.588,95.172,39.947,93.879,39.947z"/>
			<path fill="#808080" d="M106.646,46.578h-5.406c0,0-1.326,0-1.326-1.359v-1.59c0-1.33,1.326-1.33,1.326-1.33h5.438
				c2.021,0,2.451-1.591,2.521-2.286l-7.762-3.946c-4.542-2.287-4.607-7.327-4.607-7.327v-1.625c0-6.897,6.564-7.064,6.564-7.064
				h3.284c6.729,0,6.729,6.767,6.729,6.767v12.994C113.408,46.744,106.646,46.578,106.646,46.578z M106.68,24.297h-3.115
				c0,0-2.554,0.066-2.554,2.651c0,0.529,0,0.396,0,0.797c0,3.382,2.054,4.273,2.054,4.273l6.168,3.185v-8.255
				C109.231,26.948,109.199,24.297,106.68,24.297z"/>
			<path fill="#808080" d="M124.881,39.947h-3.084c-0.332,0-6.729,0-6.729-6.666V21.378c0,0,0-1.327,1.328-1.327h1.522
				c0,0,1.327,0,1.327,1.327v11.67c0,2.587,2.486,2.587,2.552,2.587h3.117c0.065,0,2.554,0,2.554-2.587v-11.67
				c0-1.327,1.327-1.327,1.327-1.327h1.527c1.323,0,1.323,1.327,1.323,1.327v11.903C131.646,40.111,124.881,39.947,124.881,39.947z"
				/>
			<path fill="#808080" d="M148.554,39.947h-8.654c-4.008,0-6.598-2.72-6.598-6.666v-6.729c0-3.847,2.887-6.5,6.734-6.5h3.118
				c0,0,6.725,0,6.725,6.829v2.057c0,0,0.069,3.051-4.343,5.174l-3.182,1.558h6.197c0,0,1.326,0,1.326,1.327v1.626
				C149.879,39.947,148.554,39.947,148.554,39.947z M143.154,24.297h-3.118c-2.523,0-2.557,2.583-2.557,2.583v6.269
				c0,0.1,0,0.201,0.031,0.268c1.756-0.862,5.604-2.854,5.604-2.854s2.587-1.159,2.587-2.222c0-1.162,0-0.758,0-1.459
				C145.703,24.331,143.218,24.297,143.154,24.297z"/>
			<path fill="#808080" d="M161.851,39.947h-8.986c0,0-1.325,0-1.325-1.325v-1.626c0-1.36,1.325-1.36,1.325-1.36h8.652
				c2.158,0,2.42-0.563,2.42-1.062c0-0.861-0.397-1.191-1.953-1.69c-2.154-0.729-4.312-1.425-6.469-2.12
				c0,0-3.977-1.125-3.977-5.339c0-5.24,5.139-5.373,6.266-5.373h8.988c0,0,1.323,0,1.323,1.327v1.558
				c0,1.327-1.323,1.327-1.323,1.327h-8.658c-2.154,0-2.42,0.663-2.42,1.161c0,1.162,1.164,1.457,2.055,1.722l6.369,2.092
				c0,0,3.979,1.16,3.979,5.336C168.116,39.812,162.976,39.947,161.851,39.947z"/>
			<path fill="#808080" d="M176.837,39.947h-0.729c-6.338,0-6.338-5.504-6.338-5.504V14.746c0,0,0-1.325,1.23-1.325h1.725
				c1.228,0,1.228,1.325,1.228,1.325v5.305h1.623c0,0,1.226,0,1.226,1.327v1.558c0,1.327-1.226,1.361-1.226,1.361h-1.623v8.852
				c0,0-0.231,2.486,2.155,2.486h0.729c0,0,1.227,0,1.227,1.328v1.659C178.062,39.947,176.837,39.947,176.837,39.947z"/>
		</g>
		<path fill="#808080" d="M93.828,17.792h-1.564c-1.322,0-1.322-1.359-1.322-1.359v-1.592c0,0,0-1.359,1.322-1.359h1.531
			c1.321,0,1.321,1.359,1.321,1.359v1.592C95.116,16.432,95.116,17.792,93.828,17.792z"/>
	</g>
	<g>
		<path fill="#808080" d="M179.031,14.246v-0.594h2.616v0.594h-0.959v2.609h-0.698v-2.609H179.031z"/>
		<path fill="#808080" d="M183.013,13.652l0.75,2.203h0.012l0.709-2.203h0.992v3.204h-0.66v-2.272h-0.008l-0.789,2.271h-0.543
			l-0.787-2.25h-0.006v2.25h-0.657v-3.203H183.013z"/>
	</g>
</g>
</svg>
