<?xml version="1.0" encoding="utf-8"?>
<!-- Generator: Adobe Illustrator 16.2.1, SVG Export Plug-In . SVG Version: 6.00 Build 0)  -->
<!DOCTYPE svg PUBLIC "-//W3C//DTD SVG 1.1//EN" "http://www.w3.org/Graphics/SVG/1.1/DTD/svg11.dtd">
<svg version="1.1" id="Layer_1" xmlns="http://www.w3.org/2000/svg" xmlns:xlink="http://www.w3.org/1999/xlink" x="0px" y="0px"
	 width="240px" height="60px" viewBox="0 0 240 60" enable-background="new 0 0 240 60" xml:space="preserve">
<g>
	<path fill="#808080" d="M70.271,22.637h4.438v8.416c0,1.168,0.469,2.104,2.105,2.104c1.402,0,1.872-0.936,1.872-2.104v-8.416h4.439
		v7.947c0,4.674-2.336,6.545-6.543,6.545c-3.976,0-6.312-1.871-6.312-6.777L70.271,22.637L70.271,22.637z"/>
	<polygon fill="#808080" points="120.532,37.365 120.532,22.637 124.976,22.637 124.976,37.365 	"/>
	<polygon fill="#808080" points="163.313,37.365 163.313,22.637 174.533,22.637 174.533,26.144 167.522,26.144 167.522,28.248 
		174.533,28.248 174.533,31.754 167.522,31.754 167.522,33.857 174.533,33.857 174.533,37.365 	"/>
	<path fill="#808080" d="M187.86,37.365V22.637h5.843c4.442,0,7.015,2.103,7.015,7.013c0,5.61-2.809,7.716-7.015,7.716H187.86
		L187.86,37.365z M192.302,33.857h0.935c2.104,0,3.04-1.168,3.04-3.975c0-3.039-0.702-3.739-3.04-3.739h-0.935V33.857
		L192.302,33.857z"/>
	<polygon fill="#808080" points="103.234,37.365 98.557,30.352 98.557,37.365 94.585,37.365 94.585,22.637 98.557,22.637 
		103.234,29.416 103.234,22.637 107.44,22.637 107.44,37.365 	"/>
	<polygon fill="#808080" points="138.765,22.637 137.13,26.609 141.573,26.609 141.573,37.365 146.015,37.365 146.015,26.609 
		149.521,26.609 151.157,22.637 	"/>
	<path fill="#808080" d="M42.918,35.258c-0.467-1.166,0-2.568,0-2.568l3.974-10.053h-3.74l-3.273,8.416c0,0-0.934,2.338-0.466,4.207
		c0.7,1.404,2.571,2.105,4.441,1.17C43.386,36.195,42.918,35.729,42.918,35.258L42.918,35.258z"/>
	<path fill="#808080" d="M43.386,35.258c0.235,0.234,0.468,0.703,0.937,0.938c0,0,1.635-0.703,2.569-3.273L51.1,22.635h-3.74
		l-3.271,8.418C43.386,32.689,42.918,34.092,43.386,35.258L43.386,35.258z"/>
	<path fill="#808080" d="M55.779,22.637l-3.508,8.416c0,0-0.704,2.57-2.104,4.207c-0.237,0.469-1.874,1.871-3.276,1.871
		c0,0,3.977,0.234,5.844-1.168c1.173-0.703,1.872-1.637,2.572-3.041l3.973-10.285H55.779L55.779,22.637z"/>
	<path fill="#808080" d="M51.099,32.922l3.975-10.287h-3.507l-3.273,8.418c0,0-1.167,3.271-2.57,4.439
		c-0.232,0.469-1.636,1.637-2.806,1.637c0,0,3.742,0.234,5.61-1.168C49.696,35.258,50.398,34.326,51.099,32.922L51.099,32.922z"/>
</g>
</svg>
