<?xml version="1.0" encoding="utf-8"?>
<!-- Generator: Adobe Illustrator 16.0.0, SVG Export Plug-In . SVG Version: 6.00 Build 0)  -->
<!DOCTYPE svg PUBLIC "-//W3C//DTD SVG 1.1//EN" "http://www.w3.org/Graphics/SVG/1.1/DTD/svg11.dtd">
<svg version="1.1" id="Layer_1" xmlns="http://www.w3.org/2000/svg" xmlns:xlink="http://www.w3.org/1999/xlink" x="0px" y="0px"
	 width="109.75px" height="95.75px" viewBox="0 0 109.75 95.75" enable-background="new 0 0 109.75 95.75" xml:space="preserve">
<g>
	<g>
		<path fill="#808080" d="M59.862,53.512c0,2.223-1.805,4.022-4.021,4.022c-2.224,0-4.023-1.799-4.023-4.022
			c0-2.221,1.8-4.019,4.023-4.019C58.058,49.493,59.862,51.292,59.862,53.512L59.862,53.512z"/>
		<polygon fill="#808080" points="55.083,40.972 53.017,47.326 26.151,27.816 20.366,15.749 55.083,40.972 		"/>
		<polygon fill="#808080" points="52.474,48.928 41.556,48.841 33.438,42.949 27.632,30.875 52.474,48.928 		"/>
		<path fill="#808080" d="M55.854,60.43c0.005,0.003,5.021,3.725,5.021,3.725c0.006-0.002-5.053,3.732-5.053,3.732
			s-3.632-2.67-5.102-3.738C50.729,64.154,55.865,60.443,55.854,60.43L55.854,60.43z"/>
		<polygon fill="#808080" points="91.313,15.749 85.516,27.827 58.657,47.327 56.591,40.964 91.313,15.749 		"/>
		<polygon fill="#808080" points="84.053,30.873 78.247,42.959 69.95,49.024 59.19,48.932 84.053,30.873 		"/>
		<polygon fill="#808080" points="61.226,55.328 65.337,52.352 72.096,57.263 63.851,63.266 61.226,55.328 		"/>
		<polygon fill="#808080" points="86.397,5.834 90.491,14.351 77.909,23.489 86.397,5.834 		"/>
		<polygon fill-rule="evenodd" clip-rule="evenodd" fill="#808080" points="25.63,88.815 25.63,90.754 28.053,90.754 28.053,88.813 
			25.63,88.815 		"/>
		<polygon fill-rule="evenodd" clip-rule="evenodd" fill="#808080" points="12.749,88.817 12.749,90.754 15.171,90.754 
			15.171,88.817 12.749,88.817 		"/>
		<path fill-rule="evenodd" clip-rule="evenodd" fill="#808080" d="M8.9,83.315h2.803v4.344c0,0.432-0.085,0.839-0.254,1.222
			c-0.167,0.384-0.431,0.719-0.79,1.004c-0.357,0.286-0.734,0.488-1.127,0.604C8.981,90.65,8.325,90.73,7.558,90.73
			c-0.444,0-0.926-0.024-1.451-0.075c-0.524-0.05-0.965-0.147-1.316-0.294c-0.355-0.147-0.676-0.356-0.969-0.629
			c-0.292-0.271-0.49-0.552-0.6-0.841c-0.172-0.465-0.264-0.874-0.264-1.232v-4.344h2.806v4.441c0,0.397,0.14,0.708,0.416,0.932
			s0.661,0.335,1.156,0.335c0.485,0,0.867-0.106,1.142-0.33c0.279-0.221,0.42-0.535,0.42-0.937L8.9,83.315L8.9,83.315z"/>
		<path fill-rule="evenodd" clip-rule="evenodd" fill="#808080" d="M16.099,88.145l2.723-0.14c0.064,0.358,0.184,0.631,0.362,0.819
			c0.301,0.303,0.728,0.455,1.282,0.455c0.41,0,0.729-0.078,0.951-0.232c0.225-0.155,0.336-0.336,0.336-0.539
			c0-0.191-0.104-0.363-0.314-0.516c-0.209-0.153-0.701-0.299-1.473-0.436c-1.262-0.229-2.163-0.531-2.701-0.907
			c-0.543-0.373-0.811-0.852-0.811-1.437c0-0.38,0.137-0.742,0.414-1.084c0.276-0.34,0.697-0.606,1.254-0.801
			c0.555-0.196,1.323-0.295,2.289-0.295c1.191,0,2.102,0.178,2.723,0.531c0.623,0.354,1,0.914,1.115,1.684l-2.699,0.131
			c-0.076-0.337-0.227-0.584-0.459-0.738c-0.234-0.154-0.555-0.23-0.969-0.23c-0.336,0-0.592,0.058-0.76,0.172
			c-0.173,0.115-0.256,0.253-0.26,0.415c-0.004,0.115,0.072,0.227,0.22,0.325c0.138,0.098,0.46,0.189,0.968,0.273
			c1.26,0.216,2.163,0.437,2.705,0.658c0.545,0.223,0.943,0.498,1.189,0.826c0.248,0.328,0.375,0.696,0.375,1.103
			c0,0.479-0.168,0.92-0.502,1.322c-0.328,0.401-0.791,0.707-1.383,0.914c-0.596,0.208-1.345,0.312-2.247,0.312
			c-1.587,0-2.685-0.244-3.294-0.73C16.521,89.514,16.175,88.895,16.099,88.145L16.099,88.145z"/>
		<polygon fill-rule="evenodd" clip-rule="evenodd" fill="#808080" points="41.624,83.301 44.134,83.301 44.134,90.604 
			41.624,90.604 41.624,83.301 		"/>
		<polygon fill-rule="evenodd" clip-rule="evenodd" fill="#808080" points="59.201,83.315 66.185,83.315 66.185,84.895 
			62.029,84.895 62.03,86.144 65.571,86.144 65.571,87.621 62.029,87.621 62.029,90.604 59.201,90.604 59.201,83.315 		"/>
		<path fill-rule="evenodd" clip-rule="evenodd" fill="#808080" d="M96.001,87.621l2.523,0.588c-0.17,0.559-0.442,1.022-0.804,1.396
			c-0.369,0.373-0.823,0.653-1.363,0.842c-0.545,0.19-1.235,0.284-2.073,0.284c-1.015,0-1.846-0.115-2.488-0.348
			c-0.646-0.231-1.203-0.635-1.67-1.215c-0.469-0.58-0.701-1.322-0.701-2.231c0-1.204,0.412-2.131,1.234-2.778
			c0.827-0.646,1.99-0.971,3.5-0.971c1.182,0,2.107,0.185,2.781,0.556c0.677,0.37,1.178,0.94,1.505,1.709l-2.549,0.437
			c-0.089-0.219-0.183-0.38-0.283-0.48c-0.16-0.173-0.356-0.307-0.595-0.398c-0.232-0.094-0.498-0.141-0.785-0.141
			c-0.655,0-1.159,0.205-1.505,0.615c-0.265,0.305-0.398,0.783-0.398,1.435c0,0.806,0.156,1.359,0.473,1.656
			c0.314,0.299,0.755,0.448,1.327,0.448c0.553,0,0.969-0.119,1.252-0.359S95.87,88.076,96.001,87.621L96.001,87.621z"/>
		<polygon fill-rule="evenodd" clip-rule="evenodd" fill="#808080" points="100.533,83.315 108.103,83.315 108.099,84.869 
			103.361,84.869 103.361,86.042 107.747,86.042 107.743,87.52 103.361,87.52 103.361,88.947 108.229,88.947 108.229,90.604 
			100.533,90.604 100.533,83.315 		"/>
		<path fill-rule="evenodd" clip-rule="evenodd" fill="#808080" d="M53.642,88.492c-0.062-0.105-0.188-0.26-0.377-0.455
			c-0.182-0.195-0.322-0.32-0.42-0.379c-0.142-0.09-0.371-0.18-0.688-0.27c0.393-0.074,0.701-0.171,0.926-0.289
			c0.357-0.184,0.637-0.424,0.842-0.719c0.199-0.293,0.304-0.644,0.304-1.047c0-0.469-0.136-0.863-0.398-1.188
			c-0.269-0.324-0.622-0.547-1.056-0.666c-0.43-0.119-1.059-0.18-1.881-0.18h-4.427v7.303h2.678v-2.957h0.231
			c0.242,0,0.459,0.057,0.65,0.171c0.14,0.087,0.301,0.273,0.48,0.562l1.418,2.225h3.007L53.642,88.492L53.642,88.492L53.642,88.492
			z M51.386,85.937c-0.111,0.124-0.254,0.202-0.428,0.233c-0.348,0.067-0.582,0.101-0.701,0.101l-1.112,0.001v-1.492l1.157-0.001
			c0.482,0,0.812,0.063,0.986,0.189c0.178,0.126,0.262,0.309,0.262,0.55C51.55,85.674,51.493,85.812,51.386,85.937L51.386,85.937z"
			/>
		<path fill-rule="evenodd" clip-rule="evenodd" fill="#808080" d="M37.216,83.301H34.19l-3.36,7.305l2.833-0.002l0.433-1.198h3.147
			l0.445,1.198h2.902L37.216,83.301L37.216,83.301L37.216,83.301z M34.701,87.828l0.979-2.627l0.991,2.627H34.701L34.701,87.828z"/>
		<path fill-rule="evenodd" clip-rule="evenodd" fill="#808080" d="M86.876,88.495c-0.061-0.107-0.184-0.257-0.369-0.452
			c-0.184-0.195-0.33-0.323-0.425-0.383c-0.146-0.09-0.376-0.178-0.69-0.271c0.396-0.073,0.705-0.167,0.932-0.284
			c0.354-0.186,0.635-0.426,0.838-0.721c0.2-0.293,0.303-0.641,0.303-1.047c0-0.467-0.13-0.863-0.399-1.186
			c-0.265-0.325-0.614-0.548-1.049-0.667c-0.437-0.12-1.062-0.181-1.884-0.181l-4.428,0.002v7.301h2.678v-2.955h0.231
			c0.241,0,0.458,0.057,0.65,0.17c0.14,0.086,0.301,0.273,0.479,0.563l1.416,2.222h3.007L86.876,88.495L86.876,88.495L86.876,88.495
			z M84.662,85.959c-0.12,0.121-0.272,0.217-0.461,0.246c-0.368,0.065-0.595,0.101-0.721,0.101h-1.146v-1.554l1.23,0.008
			c0.515,0,0.79,0.054,0.978,0.178c0.184,0.125,0.281,0.333,0.281,0.57C84.823,85.67,84.778,85.835,84.662,85.959L84.662,85.959z"/>
		<path fill-rule="evenodd" clip-rule="evenodd" fill="#808080" d="M71.194,85.377c0.344-0.32,0.797-0.482,1.365-0.482
			c0.589,0,1.058,0.159,1.4,0.477c0.346,0.317,0.521,0.821,0.521,1.511c0,0.813-0.167,1.379-0.497,1.693
			c-0.334,0.316-0.795,0.475-1.398,0.475c-0.587,0-1.052-0.161-1.395-0.483c-0.34-0.322-0.51-0.85-0.51-1.586
			C70.681,86.234,70.851,85.699,71.194,85.377L71.194,85.377L71.194,85.377z M68.48,89.095c0.416,0.567,0.968,0.983,1.642,1.245
			c0.674,0.26,1.526,0.391,2.555,0.391c1.012,0,1.857-0.15,2.537-0.454c0.676-0.303,1.195-0.728,1.556-1.272
			c0.356-0.546,0.536-1.247,0.536-2.102c0-1.175-0.408-2.086-1.23-2.738c-0.822-0.651-1.992-0.977-3.51-0.977
			c-1.48,0-2.641,0.332-3.469,0.996c-0.83,0.664-1.246,1.591-1.246,2.781C67.851,87.82,68.058,88.527,68.48,89.095L68.48,89.095z"/>
	</g>
	<polygon fill="#808080" points="25.054,5.906 20.886,14.388 33.394,23.633 25.054,5.906 	"/>
	<polygon fill="#808080" points="46.498,52.306 50.542,55.374 47.804,63.27 39.663,57.124 46.498,52.306 	"/>
</g>
</svg>
